<?xml version="1.0" encoding="utf-8"?>
<!-- Generator: Adobe Illustrator 26.5.0, SVG Export Plug-In . SVG Version: 6.00 Build 0)  -->
<svg version="1.1" id="Layer_1" xmlns="http://www.w3.org/2000/svg" xmlns:xlink="http://www.w3.org/1999/xlink" x="0px" y="0px"
	 viewBox="0 0 200.4 123.1" style="enable-background:new 0 0 200.4 123.1;" xml:space="preserve">
<style type="text/css">
	.st0{fill:#F1F1F1;}
</style>
<g>
	<path class="st0" d="M62.1,0H17.4C7.8,0,0,7.8,0,17.4v1.2h54.7L62.1,0z"/>
	<path class="st0" d="M114.5,63.7c-1.4,0-14-2-19.9,0.5c-5.9,2.5-8.9,6.9-8.9,11.9c0,5,1.7,10.9,8.1,12.4s19,0.9,22.1-0.5l0-11.8
		c0,0,0-8.3,0-9.7S115.9,63.7,114.5,63.7z"/>
	<path class="st0" d="M0,104.5v1.2c0,8.2,5.6,15,13.2,16.9l7.2-18.1H0z"/>
	<polygon class="st0" points="30.5,79.1 0,79.1 0,94.7 24.3,94.7 	"/>
	<polygon class="st0" points="50.8,28.4 0,28.4 0,44 44.6,44 	"/>
	<path class="st0" d="M183,0H72.6l-49,123.1H183c9.6,0,17.4-7.8,17.4-17.4V17.4C200.4,7.8,192.6,0,183,0z M173.7,90.6
		c-4.8,7-14.8,10.6-26.9,10.6s-19.8-3.1-19.8-3.1c-16.5,3.7-28.4,4.2-41.2,0.7C73,95.3,68.6,79.5,72.2,69.4
		c3.6-10.1,11.5-13.9,18.6-16.2c7.1-2.3,23.4-1,24.3-1c0.9,0,1.1-2,0-8.8c-1.1-6.8-8.3-9.4-16.9-9.4s-14.3,2.3-16.9,2.6
		c-2.6,0.4-3.4-6.8-3.8-10.2s17.3-4.3,23-4.5c15.8-0.5,25.4,9.3,26.5,12.8c1.1,3.5,1.6,1.1,2.5-0.9c0.9-2,3.8-7.9,16.2-10.9
		s25.9,0.4,29.1,1.2s0.5,8.5,0.1,11.1c-0.4,2.6-2.3,3.1-7.2,0.9c-4.8-2.2-14.6-1.9-16-1.8c-1.4,0.2-9.8,0.3-9.8,8.3
		s8.3,8.9,15.6,10.9c7.3,2,19.4,7.5,20.7,16.3C179.5,78.8,178.6,83.7,173.7,90.6z"/>
	<path class="st0" d="M159.9,69.2c-4.7-2.3-23.9-7.7-29.6-14.4c0,0-0.3,25.7-0.3,27.8s-0.6,3.5,1.6,4.2c2.1,0.7,14.9,3.4,19.6,2.2
		c4.7-1.1,11-4,11.9-7.2C164,78.5,164.6,71.5,159.9,69.2z"/>
	<polygon class="st0" points="40.6,53.7 0,53.7 0,69.3 34.4,69.3 	"/>
</g>
</svg>
