<?xml version="1.0" encoding="utf-8"?>
<!-- Generator: Adobe Illustrator 26.5.0, SVG Export Plug-In . SVG Version: 6.00 Build 0)  -->
<svg version="1.1" id="Layer_1" xmlns="http://www.w3.org/2000/svg" xmlns:xlink="http://www.w3.org/1999/xlink" x="0px" y="0px"
	 viewBox="0 0 216.8 217.1" style="enable-background:new 0 0 216.8 217.1;" xml:space="preserve">
<style type="text/css">
	.st0{fill:#F1F1F1;}
</style>
<g>
	<path class="st0" d="M9.7,61.3l7,19.4c5.7-1.7,16.7,0.2,25.1,2.8c0.7-1.8,1.4-3.6,2.3-5.3L9.7,61.3z"/>
	<path class="st0" d="M2.3,82.1l11.3,17.5c5-3.2,16-3.7,24.6-2.8c0.3-2,0.7-3.9,1.2-5.8L2.3,82.1z"/>
	<path class="st0" d="M156.1,11.2l-18.7,6.5c1.7,5.5-0.5,16.4-3.4,24.4c1.9,0.8,3.8,1.6,5.6,2.5L156.1,11.2z"/>
	<path class="st0" d="M173.7,21.6l-20.1,3.2c0.7,5.3-2.2,16.7-6.7,23.9c1.7,1.1,3.3,2.2,4.9,3.5L173.7,21.6z"/>
	<path class="st0" d="M135.9,3.5l-17.2,10.3c2.4,4.8,3.3,16.3,1.9,24.5c2.3,0.4,4.5,0.9,6.7,1.5L135.9,3.5z"/>
	<path class="st0" d="M21.7,44.5l2.6,19c5.4-0.4,15.8,3.2,23.6,7.6c1-1.6,2.1-3.2,3.2-4.7L21.7,44.5z"/>
	<path class="st0" d="M71.7,5.9l-8,18.5c5,2.4,12.2,11.1,16,18.8c1.9-0.8,3.8-1.6,5.8-2.3L71.7,5.9z"/>
	<path class="st0" d="M52.3,14.9l-4.2,19.6C53.3,36.4,61.9,44,67,50.5c1.7-1.3,3.5-2.4,5.4-3.5L52.3,14.9z"/>
	<path class="st0" d="M206.5,155l-7.4-18c-5.4,1.2-15.8-0.8-24.4-3.9c-0.8,2.1-1.7,4.1-2.6,6.1L206.5,155z"/>
	<path class="st0" d="M0.4,124.4L17.1,137c4-4.1,14.1-9.6,22.3-11.9c-0.5-2.1-0.9-4.2-1.3-6.3L0.4,124.4z"/>
	<path class="st0" d="M145.3,210.4l7.1-18c-6.5-2-11.4-11.4-14.9-19.7c-2.1,1-4.3,1.8-6.6,2.6L145.3,210.4z"/>
	<path class="st0" d="M195.8,172.8l-3.5-19.7c-5.3,0.3-16.4-2-24.2-6.9c-1.2,1.8-2.4,3.6-3.7,5.3L195.8,172.8z"/>
	<path class="st0" d="M202,52.7l-20.1-4.6c-1.1,5.8-8.3,14-15.9,19c1.4,2,2.7,4,3.9,6.1L202,52.7z"/>
	<path class="st0" d="M124,215.7l11.7-16.7c-5.4-3.3-9.2-13.3-11.3-21.7c-2.3,0.5-4.7,1-7,1.3L124,215.7z"/>
	<path class="st0" d="M164.7,200.3l3.3-18.1c-5.9-1.1-13.3-9.4-18.6-16.2c-1.8,1.3-3.7,2.5-5.6,3.6L164.7,200.3z"/>
	<path class="st0" d="M81.4,213.5L98,202.8c-2.5-4.8-2.5-16-1.4-24.6c-2.1-0.3-4.2-0.8-6.2-1.3L81.4,213.5z"/>
	<path class="st0" d="M5.9,145l18.7,8.4c2.3-5.1,11.4-12.2,19.1-15.8c-0.9-1.9-1.7-3.9-2.4-5.9L5.9,145z"/>
	<path class="st0" d="M14.3,163.8l20.7,4.8c1.5-5.4,9-13.4,16-18.6c-1.3-1.7-2.5-3.5-3.6-5.4L14.3,163.8z"/>
	<path class="st0" d="M61.3,206.2l18.8-7c-1.8-5.5-0.1-16.5,3.2-24.7c-2-0.8-4-1.6-6-2.6L61.3,206.2z"/>
	<path class="st0" d="M43.6,195.4l20-2.9c0.1-5.2,3.3-16.5,7.4-24c-1.9-1.2-3.6-2.4-5.4-3.7C61.5,170.4,43.7,195.8,43.6,195.4z"/>
	<path class="st0" d="M93,0.4L81.1,16.9C85.5,20.7,90.8,31,92.3,39c2.2-0.5,4.4-0.9,6.7-1.2L93,0.4z"/>
	<path class="st0" d="M104,179l-0.4,38.1l13.5-14c-2.9-4.3-6.2-15.1-6.9-23.9c-0.6,0-1.2,0-1.9,0C106.8,179.2,105.4,179.1,104,179z"
		/>
	<path class="st0" d="M155,161.5l26,27.4l0.7-20.3c-5.5-0.3-15-6.2-21.9-11.8C158.4,158.4,156.7,160,155,161.5z"/>
	<path class="st0" d="M178.3,120.1c-0.4,2.2-0.8,4.3-1.4,6.4l37,8.5c3.2,3.2-11-14.9-11-15.9C197.8,122,187.2,122.2,178.3,120.1z"/>
	<path class="st0" d="M211.3,72.6l-19.4-9.1c-1.8,6.1-10,12.8-18.6,16.3c0.8,1.9,1.6,3.8,2.2,5.7L211.3,72.6z"/>
	<path class="st0" d="M55.9,156l-27.8,25.5l19.7,0.3c0.3-5.9,6.6-14.8,12.2-21.6C58.6,158.8,57.2,157.4,55.9,156z"/>
	<path class="st0" d="M37.4,104.1H0l13.8,14c4.8-3.7,15-6.9,23.6-8c0-0.7-0.1-1.3-0.1-2C37.3,106.8,37.4,105.5,37.4,104.1z"/>
	<path class="st0" d="M179.1,113.2l37.7,1.8l-13.3-14.2c-4.5,3.6-15.7,5.2-24.3,5.1c0,0.8,0.1,1.5,0.1,2.3
		C179.3,109.9,179.2,111.5,179.1,113.2z"/>
	<path class="st0" d="M216.1,92.8L199.6,81c-3.6,5.1-13.5,9.7-22,11.9c0.4,1.9,0.8,3.8,1,5.8L216.1,92.8z"/>
	<path class="st0" d="M162.2,62.2l27.4-26l-20.1-0.6c-0.3,5.7-5.6,15.8-11.7,21.8C159.3,58.9,160.8,60.5,162.2,62.2z"/>
	<path class="st0" d="M113.4,37.4l1-37.4L99.9,13.6c3.6,4.3,6.5,14.8,6.9,23.6c0.5,0,0.9,0,1.4,0C110,37.2,111.7,37.3,113.4,37.4z"
		/>
	<path class="st0" d="M60.9,55.5L35.5,28.1l-1.3,20.6c5.9,0.3,15.9,5.7,22.1,11.3C57.8,58.4,59.3,56.9,60.9,55.5z"/>
	<path class="st0" d="M179.1,113.2c0.1-1.6,0.2-3.3,0.2-5c0-0.8,0-1.5-0.1-2.3c-0.1-2.4-0.3-4.8-0.6-7.2c-0.3-2-0.6-3.9-1-5.8
		c-0.6-2.5-1.3-5-2.1-7.5c-0.7-1.9-1.4-3.9-2.2-5.7c-1-2.2-2.1-4.4-3.3-6.5c-1.2-2.1-2.5-4.1-3.9-6.1c-1.2-1.7-2.5-3.3-3.8-4.9
		c-1.4-1.7-2.9-3.3-4.5-4.8c-1.9-1.9-3.9-3.6-6.1-5.3c-1.6-1.2-3.2-2.4-4.9-3.5c-2.3-1.5-4.7-2.8-7.1-4.1c-1.8-0.9-3.7-1.7-5.6-2.5
		c-2.2-0.9-4.5-1.7-6.9-2.3c-2.2-0.6-4.4-1.1-6.7-1.5c-2.3-0.4-4.7-0.7-7-0.9c-1.7-0.1-3.4-0.2-5.2-0.2c-0.5,0-1,0-1.4,0
		c-2.6,0.1-5.2,0.3-7.8,0.6c-2.3,0.3-4.5,0.7-6.7,1.2c-2.3,0.5-4.6,1.2-6.9,2c-2,0.7-3.9,1.4-5.8,2.3c-2.5,1.1-5,2.4-7.3,3.8
		c-1.9,1.1-3.7,2.3-5.4,3.5c-2.1,1.5-4.2,3.2-6.1,4.9c-1.6,1.4-3.1,2.9-4.6,4.5c-1.9,2-3.6,4.1-5.2,6.3c-1.1,1.5-2.2,3.1-3.2,4.7
		c-1.4,2.3-2.7,4.7-3.9,7.1c-0.8,1.7-1.6,3.5-2.3,5.3c-0.9,2.5-1.7,5-2.4,7.6c-0.5,1.9-0.9,3.8-1.2,5.8c-0.4,2.4-0.7,4.8-0.8,7.2
		c-0.1,1.4-0.1,2.7-0.1,4.1c0,0.7,0,1.3,0.1,2c0.1,2.9,0.3,5.8,0.7,8.6c0.3,2.1,0.8,4.3,1.3,6.3c0.5,2.2,1.2,4.4,2,6.5
		c0.7,2,1.5,4,2.4,5.9c1.1,2.4,2.4,4.8,3.7,7.1c1.1,1.8,2.3,3.6,3.6,5.4c1.5,2.1,3.2,4.1,4.9,6c1.3,1.4,2.7,2.8,4.1,4.1
		c1.8,1.6,3.6,3.2,5.5,4.7c1.7,1.3,3.5,2.5,5.4,3.7c2,1.3,4.1,2.4,6.3,3.5c1.9,1,3.9,1.8,6,2.6c2.3,0.9,4.7,1.7,7.2,2.3
		c2,0.5,4.1,1,6.2,1.3c2.4,0.4,4.9,0.7,7.4,0.8c1.4,0.1,2.8,0.1,4.3,0.1c0.6,0,1.3,0,1.9,0c2.4-0.1,4.9-0.3,7.2-0.6
		c2.4-0.3,4.7-0.7,7-1.3c2.2-0.5,4.4-1.1,6.5-1.9c2.2-0.8,4.4-1.6,6.6-2.6c2.1-1,4.2-2.1,6.3-3.2c1.9-1.1,3.8-2.3,5.6-3.6
		c2-1.4,3.9-2.9,5.7-4.5c1.7-1.5,3.3-3,4.9-4.7c1.6-1.7,3.1-3.5,4.5-5.3c1.3-1.7,2.6-3.5,3.7-5.3c1.4-2.2,2.7-4.5,3.9-6.9
		c1-2,1.9-4,2.6-6.1c0.8-2.2,1.5-4.4,2.1-6.7c0.6-2.1,1-4.2,1.4-6.4C178.7,117.8,178.9,115.5,179.1,113.2z M115.3,173.8l-3.1,0.2
		l-0.9-10.1h-2.4l-0.2-2.4l7.7-0.9l0.2,2.6l-2.2,0.2L115.3,173.8z M108.3,156.4c-26.5,0-48.2-21.7-48.2-48.2
		c0-26.5,21.7-48.3,48.2-48.3c26.5,0,48.3,21.7,48.3,48.3C156.6,134.7,134.9,156.4,108.3,156.4z M98.8,170.1h0.2l0.4-5.7
		c0.2-1.3,0.7-2.2,1.5-2.9c0.9-0.4,2-0.4,3.1-0.4h0.4l0.4,0.2c0.9,0,1.5,0.7,2,1.1c0.9,0.7,1.1,1.5,1.1,2.6l-0.7,5.7
		c0,1.3-0.4,2.4-1.3,2.9c-0.4,0.9-1.8,1.1-3.3,0.9c-1.5,0-2.6-0.7-3.1-1.5S98.8,171,98.8,170.1z M93.1,45.1l0.7,2.4l-2.4,0.7
		l2.9,10.1l-2.9,0.9l-2.9-10.1l-2.4,0.7l-0.7-2.4L93.1,45.1z M79.5,50.1l2.9-1.5l4.2,8.3c0.7,1.3,0.9,2.6,0.4,3.3
		c-0.4,0.9-1.3,1.5-2.2,2.2c-1.3,0.4-2.4,0.7-3.3,0.7c-0.9-0.2-1.8-0.9-2.2-2l-4.6-8.6h0.2l2.9-1.5l4.6,9c0,0.2,0.4,0.4,0.4,0.4h0.9
		c0.2-0.2,0.4-0.4,0.4-0.7v-0.9L79.5,50.1z M73.6,56.3l-2,1.5l6.4,8.1l-2.4,2l-6.4-8.1l-1.8,1.3l-1.5-2l5.9-4.8L73.6,56.3z M62,62.9
		l2.2-2.2l2.9,7.5l4.2,3.9L69,74.3l-4.2-3.9l-7.2-2.9l2.2-2.2l3.9,1.8L62,62.9z M55.6,70.3l2.2,1.3l-1.3,2l8.8,5.9l-1.8,2.4L55,76.2
		l-1.3,2l-2.2-1.5L55.6,70.3z M57.8,88.1c0.4-0.2,0.7-0.2,0.9-0.4h0.2v-0.9c-0.4-0.2-0.7-0.7-1.1-0.9h-0.9c-0.2,0-0.9,0.4-1.1,0.4
		c0,0-0.4,0.2-0.4,0.4c-0.2,0.2-0.7,0.4-0.7,0.4c-0.7,0.4-1.5,0.7-2.2,0.9c-0.7,0.2-1.8,0-2.6-0.4h-0.2v-0.2c-0.9-0.2-1.3-1.1-1.5-2
		c-0.2-0.7-0.2-1.8,0.2-2.6c0.4-0.9,1.3-1.8,2-2.2c0.9-0.4,2.2-0.2,3.5,0.4l-1.3,2.4h-0.2C51.9,83,51.5,83,51.2,83
		c-0.4,0.2-0.7,0.4-0.7,0.7c-0.2,0.2-0.2,0.7-0.2,0.7c0,0.2,0.4,0.4,0.7,0.7h0.9c0.4,0,0.9-0.2,1.3-0.7c0,0,0.4,0,0.4-0.2
		c0-0.2,0.4-0.2,0.4-0.4c0.4-0.2,1.1-0.7,2-0.7c0.9-0.4,1.8-0.4,2.4,0c1.8,0.9,2.4,1.8,2.9,2.6c0,1.1,0,2.2-0.4,3.1V89h-0.2
		c-0.4,1.1-1.3,1.8-2.2,2c-0.7,0.2-1.8,0.2-3.1-0.4h-0.2L55,90.1h-0.2l1.3-2.4h0.4v0.2C57.2,87.9,57.6,88.1,57.8,88.1z M52.8,94
		l-7.2-1.5l0.9-3.1l12.3,3.5L57.8,96l-7.5,0.4l7,1.5l-0.9,2.9L44,97.3l0.9-3.1L52.8,94z M43.8,101.7l12.7,0.7v3.1l-12.9-0.7
		L43.8,101.7z M51.9,114.6c0,1.5-1.1,2.9-2.6,2.9s-2.6-1.3-2.6-2.9c0-1.3,1.1-2.6,2.6-2.6S51.9,113.3,51.9,114.6z M48.2,133.7
		l7.7-4.2l-8.6,2.4l-1.3-3.1l11-7.2l1.3,2.9l-7.9,4.2l8.8-2l1.1,2.4l-7.7,4.6l8.6-2.6l1.1,2.9l-12.9,2.9L48.2,133.7z M56.5,147.7
		c-0.9,0-2-0.9-2.6-2.2c-0.9-1.1-1.1-2.4-0.7-3.3c0.4-1.1,1.1-1.8,1.8-2.4h0.2l4.8-3.1c1.1-0.7,2-0.9,3.1-0.4
		c0.9,0.4,1.8,1.3,2.2,2.2l0.2,0.2v0.4c0.4,0.9,0.7,1.8,0.7,2.4c-0.2,0.9-0.7,1.8-1.5,2.4l-5,3.1C58.5,147.7,57.4,148,56.5,147.7z
		 M61.1,148.4v-0.2h0.2h0.2l1.8,1.8l-1.3,1.3v0.2v0.4l0.4,0.2l0.2-0.2l7.7-7h0.2l2,2.2l-7.7,7.2c-0.4,0.4-1.3,0.7-2,0.7
		c-0.9,0-1.8-0.4-2.2-1.1c-0.9-0.9-1.1-1.8-1.3-2.4C59.4,150.6,59.8,149.5,61.1,148.4z M67.9,160.9l-0.2-0.2v-0.2
		c-0.9-0.7-1.3-1.5-1.3-2.4c-0.2-0.7,0-1.8,0.9-2.9l0.2-0.2c0.2-0.2,0.4-0.4,0.4-0.4l2.2,2l-0.2,0.2l-0.2,0.2
		c-0.2,0.4-0.4,0.9-0.4,1.1c0,0.2,0,0.7,0.2,0.9v0.2h0.9c0.2,0,0.4-0.2,0.9-0.7c0-0.2,0.2-0.7,0.2-0.9c0-0.4-0.2-0.9-0.2-1.3
		c0,0,0-0.4-0.2-0.4c-0.2-0.2-0.2-0.7-0.2-0.9c-0.2-0.4-0.4-1.5-0.2-2.2c0-0.7,0.2-1.5,0.9-2.4v-0.2h0.2c0.4-0.7,1.3-0.9,2-0.9
		c0.9-0.2,2,0,2.9,0.7c0.9,0.7,1.3,1.8,1.5,2.6c0.2,0.9-0.2,2-1.1,3.1l-2.2-1.8h0.2v-0.2c0.4-0.4,0.4-0.9,0.4-1.1
		c0-0.2,0-0.4-0.2-0.9c-0.2,0-0.7,0-0.7-0.2c-0.2,0-0.7,0.2-0.9,0.7c0,0-0.2,0.4-0.2,0.9c0,0.2,0.2,0.9,0.4,1.3c0,0,0,0.2,0.2,0.4
		c0,0,0,0.4,0.2,0.7c0.2,0.4,0.2,1.3,0.2,2c0.2,0.9,0,1.8-0.9,2.4c-0.9,1.3-2,2-2.9,2C69.7,161.8,68.8,161.6,67.9,160.9z
		 M81.7,168.4l-2.9-1.1v-4.6l-0.9,0.9l-1.1,2.6l-2.9-1.3l5.5-11.6l2.6,1.3l-2.2,4.6l4.4-3.7l2.9,1.3l-5,4.2L81.7,168.4z M95.5,173.4
		l-6.6-1.8l3.3-12.5l3.1,0.7l-2.6,10.1l3.5,0.9L95.5,173.4z M107,56.1l-3.1,0.2L102.8,46l-2.4,0.2l-0.4-2.4l7.9-0.9l0.2,2.4
		l-2.2,0.4L107,56.1z M173.4,101.2l0.4,2.9l-7.7-2l-5.7,0.9l-0.4-2.9l5.7-1.1l6.6-4.2l0.4,3.1l-3.7,2.2L173.4,101.2z M169.9,114.6
		c0,1.5-1.1,2.9-2.6,2.9c-1.5,0-2.6-1.3-2.6-2.9c0-1.3,1.1-2.6,2.6-2.6C168.8,112,169.9,113.3,169.9,114.6z M158.1,91.2l-0.9-2.9
		l12.3-4.2l0.9,3.1l-6.4,4.6l7-2.9l0.9,2.9L159.6,96l-0.9-2.9l5.9-4.8L158.1,91.2z M165.7,82.6l-8.6,0.4l1.8,3.3l-2.2,1.3l-3.5-6.6
		l2.2-1.3h8.8l-1.8-3.3l2.4-1.1l3.3,6.1L165.7,82.6z M160.9,68.8c0.9,1.1,1.1,2.2,1.1,3.3c0,0.9-0.4,1.8-1.3,2.4l-1.1,0.9l-2-2.6
		l1.3-1.1c0.2,0,0.4-0.2,0.2-0.4c0.2-0.2,0-0.7,0-0.7c-0.2-0.4-0.4-0.4-0.7-0.4s-0.7,0-0.9,0.2l-5.3,4.2c-0.4,0.2-0.4,0.4-0.4,0.7
		v0.7c0.4,0.4,0.7,0.4,0.9,0.4c0.2,0.2,0.7,0,0.9-0.2l1.5-1.1l2,2.4l-1.8,1.3c-0.7,0.4-1.5,0.9-2.2,0.7c-0.9,0-1.8-0.4-2.2-1.1
		c0,0-0.2-0.2-0.2-0.4c-0.2,0-0.4-0.4-0.4-0.4c-0.9-1.1-1.5-2.2-1.3-3.1c0-0.9,0.7-2,1.8-2.9l4.6-3.7c0.7-0.4,1.8-0.7,2.6-0.7
		C158.9,67,160,67.7,160.9,68.8z M146.6,73l-2.2-2.4l9.2-9l2.2,2L146.6,73z M149.1,57.4l2.4,1.8l-8.1,10.1l-2.4-1.8l2.4-7l-3.9,5.7
		l-2.4-1.8l8.1-10.3l2.4,2l-2.9,7.5L149.1,57.4z M137,49.7l-2.2,4.6l1.8,0.7l2.4-4.4l2.9,1.5l-6.1,11.4l-2.6-1.3l2.2-4.6l-1.5-0.9
		l-2.4,4.6l-2.8-1.5l-0.1,0.2v-0.2l0.1,0l5.6-11.7L137,49.7z M123.2,45.5c0.9-0.7,2.2-0.7,3.5-0.2c1.3,0.4,2.2,1.1,2.9,2
		c0.4,0.7,0.4,1.8,0.2,2.9l-0.2,1.3l-3.3-1.1l0.4-1.3v-0.9c0-0.2-0.4-0.4-0.7-0.4h-0.7c-0.2,0-0.4,0.4-0.7,0.9L123,55
		c-0.2,0.4,0,0.7,0,0.9c0.2,0.2,0.4,0.4,0.7,0.4h0.7c0.4,0,0.7-0.4,0.9-0.9l0.4-1.8l2.9,0.9l-0.4,2c-0.2,0.9-0.9,1.5-1.5,1.8
		c-0.7,0.4-1.5,0.7-2.2,0.4h-0.7c-0.2,0-0.4-0.2-0.7-0.2c-1.3-0.4-2.4-0.9-2.6-1.8c-0.7-0.7-0.7-2-0.4-3.3l1.8-5.7
		C121.9,46.9,122.5,46.2,123.2,45.5z M112.2,43.1l7,0.7l-0.2,2.4l-3.9-0.4l-0.2,2.4l3.7,0.4l-0.2,2.9l-3.7-0.4l-0.4,2.9l3.9,0.4
		l-0.2,2.4l-7-0.7L112.2,43.1z M146,146.4l1.5,2l1.8,8.6l3.1-2.4l1.5,2.2l-5.9,4.4l-1.5-2l-1.8-8.8l-2.9,2.2l-1.5-2L146,146.4z
		 M121,159.6l3.9,6.8l-2.2-7.2l3.1-0.7l2.9,12.7l-3.1,0.7l-3.9-6.4l2,6.8l-2.9,0.7l-2.9-12.7L121,159.6z M127.6,157.6l3.1-1.1
		l4.8,12.1l-2.9,1.1L127.6,157.6z M142.7,165.1c-0.4,0.2-0.7,0.2-0.7,0.2c-1.3,0.7-2.4,1.1-3.1,0.9c-1.1-0.2-2-0.9-2.9-2.2l-2.6-5
		c-0.4-0.9-0.7-1.8-0.4-2.6c0-1.1,0.9-2,2.2-2.9c0.9-0.4,2.2-0.9,3.1-0.7c0.9,0.2,2,1.1,2.4,1.8l0.7,1.1l-2.9,1.8l-0.7-1.5
		c-0.2,0-0.7-0.4-0.9-0.4c0,0-0.4,0-0.7,0.2c-0.2,0.2-0.4,0.4-0.4,0.7c0,0,0,0.7,0.2,0.9l3.3,5.9c0.2,0.2,0.4,0.4,0.7,0.4
		c0.2,0,0.7,0,0.9-0.2c0.2-0.2,0.4-0.2,0.4-0.7c0.2-0.2,0.2-0.7-0.2-0.9l-0.9-1.8l2.9-1.5l0.9,1.8c0.4,0.9,0.7,1.8,0.4,2.4
		c-0.2,0.9-0.9,1.5-1.3,2.2C143.1,164.8,142.7,164.8,142.7,165.1z M153.7,148l-7.7-2.4l2.2-2.2l4.2,1.3l-2-3.9l2-2.4l3.3,7.5
		l4.4,3.5l-2.2,2.4L153.7,148z M160.5,142.3l-5-3.1c-0.7-0.4-1.3-1.3-1.8-2.2c-0.2-0.9,0-2.2,0.9-3.5c0.9-0.9,1.5-1.8,2.4-2
		c0.9-0.4,2.2,0,3.3,0.4l0.7,0.7l-1.5,2.9l-1.3-0.9c-0.2-0.2-0.7-0.2-0.7-0.2c-0.4,0-0.7,0.4-0.9,0.4v0.9c0,0.2,0.4,0.4,0.4,0.7
		l5.9,3.7h0.7c0.2,0,0.7-0.2,0.7-0.4c0.2-0.2,0.2-0.4,0.2-0.9c0-0.2-0.2-0.4-0.7-0.7l-1.5-1.1l1.5-2.6l2,1.1
		c0.7,0.4,1.3,1.1,1.3,1.8c0,0.9,0,2-0.2,2.4c-0.2,0.2-0.2,0.4-0.2,0.7c-0.2,0.2-0.4,0.4-0.4,0.4c-0.7,1.3-1.5,2.2-2.4,2.4
		C162.9,143.4,161.6,142.9,160.5,142.3z M171,129.1l-5-1.8l-0.4,2l4.8,1.5l-0.9,3.1L157,130l1.1-3.1l4.8,1.5l0.7-1.8l-4.8-1.8
		l1.1-2.9l12.1,3.9L171,129.1z"/>
	<path class="st0" d="M103,172.3c0.4,0,0.7-0.2,0.7-0.2c0.4,0,0.7-0.4,0.7-0.9l0.7-6.4c0-0.4-0.2-0.9-0.4-0.9
		c-0.2-0.2-0.4-0.4-0.9-0.4c0,0-0.4,0-0.7,0.2c0,0.2-0.2,0.7-0.2,0.9v-0.2l-0.7,6.6c0,0.2,0,0.7,0.2,0.9
		C102.6,172.1,102.8,172.3,103,172.3z"/>
	<path class="st0" d="M63.5,140.7c0-0.4,0-0.7-0.4-0.9c0-0.2-0.2-0.4-0.4-0.7c-0.2,0-0.7,0.2-0.9,0.4l0.2-0.2l-5.7,3.5
		c-0.4,0.2-0.4,0.4-0.4,0.7c-0.2,0.2-0.2,0.7,0,0.9c0,0.2,0.4,0.4,0.4,0.4c0.4,0.2,0.7,0,1.1,0l5.5-3.5
		C63.1,141.2,63.5,140.7,63.5,140.7z"/>
	<path class="st0" d="M139.5,76.2H77.5c-0.6,0-1.1,0.5-1.1,1.1v61.9c0,0.6,0.5,1.1,1.1,1.1h61.9c0.6,0,1.1-0.5,1.1-1.1V77.3
		C140.6,76.7,140.1,76.2,139.5,76.2z M78.7,108.3H83V82.8h25.5v25.5H134V82.8h-25.5v-4.3h29.8v29.8H134v25.5h-25.5v4.3H78.7V108.3z"
		/>
	<rect x="83" y="108.3" class="st0" width="25.5" height="25.5"/>
</g>
</svg>
