<?xml version="1.0" encoding="utf-8"?>
<!-- Generator: Adobe Illustrator 26.5.0, SVG Export Plug-In . SVG Version: 6.00 Build 0)  -->
<svg version="1.1" id="Layer_1" xmlns="http://www.w3.org/2000/svg" xmlns:xlink="http://www.w3.org/1999/xlink" x="0px" y="0px"
	 viewBox="0 0 508.1 55.9" style="enable-background:new 0 0 508.1 55.9;" xml:space="preserve">
<style type="text/css">
	.st0{fill:#F1F1F1;}
</style>
<g>
	<path class="st0" d="M236.6,4.9c0-3-1.7-4.9-4.9-4.9h-21.4c-11.5,0-16.4,4.9-16.4,16.4v23c0,4.5-2,6.6-6.7,6.6h-27.8
		c-3,0-4.9,1.9-4.9,5c0,2.9,1.9,4.9,4.9,4.9h27.9c11.4,0,16.6-4.9,16.6-16.4v-23c0-4.9,1.8-6.6,6.6-6.6h21.4
		C234.9,9.9,236.6,8,236.6,4.9L236.6,4.9z"/>
	<path class="st0" d="M65.7,0H16.4C6.5,0,0,6.6,0,16.4v23c0,9.9,6.6,16.4,16.4,16.4h39.4c3.3,0,6.6-3.3,6.6-6.6V37.7
		c0-2.8-2.1-4.9-4.8-4.9c-3.1,0-5,1.9-5,4.9v8.2H16.4c-3.3,0-6.6-3.3-6.6-6.6v-23c0-3.3,3.3-6.6,6.6-6.6h49.3c3.3,0,6.6,3.3,6.6,6.6
		v34.5c0,2.6,2,4.9,4.9,4.9c2.8,0,4.9-1.6,4.9-4.9V16.3C82.2,6.6,75.6,0,65.7,0L65.7,0z"/>
	<path class="st0" d="M246.5,39.5c0,11.5,4.8,16.4,16.4,16.4c20.3,0,40.5,0,60.8,0c3,0,4.9-1.9,4.9-5c0-2.9-1.9-4.9-4.9-4.9h-60.9
		c-4.9-0.1-6.6-1.8-6.6-6.6v-23c0-4.9,1.8-6.6,6.6-6.6h49.3c4.6,0,6.6,1.7,6.6,6.6S317,23,312.1,23h-41c-3.3,0-4.9,1.7-4.9,4.9
		c0,3.2,1.7,4.9,4.9,4.9h41c11.6,0,16.4-4.9,16.4-16.4S323.6,0,312.1,0h-49.3c-11.8,0-16.4,4.9-16.4,16.4v23.1H246.5z"/>
	<path class="st0" d="M338.5,39.5c0,11.5,4.8,16.4,16.4,16.4c20.3,0,35,0,55.2,0c3,0,4.9-1.9,4.9-5c0-2.9-1.7-4.9-4.9-4.9h-55.3
		c-4.9-0.1-6.6-1.8-6.6-6.6c0-7.7,0-15.3,0-23c0-4.8,1.7-6.5,6.6-6.6c20.3,0,34.9,0,55.2,0c3,0,4.9-1.9,4.9-4.9S413,0,410,0h-55.2
		c-11.6,0-16.4,4.9-16.4,16.4L338.5,39.5L338.5,39.5z"/>
	<path class="st0" d="M426,39.4c0,11.5,4.8,16.5,16.4,16.5h49.3c11.6,0,16.4-5,16.4-16.5v-23c0-11.5-4.8-16.4-16.4-16.4h-49.3
		C430.8,0,426,4.9,426,16.4V39.4L426,39.4z M442.4,46c-4.9-0.1-6.6-1.9-6.6-6.6v-23c0-4.8,1.6-6.4,6.6-6.5h49.3
		c4.9,0.1,6.6,1.8,6.6,6.6c0,7.7,0,15.3,0,22.9c0,4.8-1.7,6.6-6.6,6.7L442.4,46L442.4,46z"/>
	<path class="st0" d="M174.2,4.9c0-3-1.7-4.9-4.9-4.9h-21.4c-11.5,0-16.4,4.9-16.4,16.4v23c0,4.5-2,6.6-6.7,6.6h-28
		c-3,0-4.7,1.9-4.7,5c0,2.9,1.8,4.9,4.7,4.9h28c11.4,0,16.6-4.9,16.6-16.4v-23c0-4.9,1.8-6.6,6.6-6.6h21.4
		C172.5,9.9,174.2,8,174.2,4.9L174.2,4.9z"/>
</g>
</svg>
