<?xml version="1.0" encoding="utf-8"?>
<!-- Generator: Adobe Illustrator 26.5.0, SVG Export Plug-In . SVG Version: 6.00 Build 0)  -->
<svg version="1.1" id="Layer_1" xmlns="http://www.w3.org/2000/svg" xmlns:xlink="http://www.w3.org/1999/xlink" x="0px" y="0px"
	 viewBox="0 0 480.4 98.6" style="enable-background:new 0 0 480.4 98.6;" xml:space="preserve">
<style type="text/css">
	.st0{fill-rule:evenodd;clip-rule:evenodd;fill:#F1F1F1;}
	.st1{fill:#F1F1F1;}
</style>
<g id="Warstwa_x0020_1">
	<path class="st0" d="M157.3,32.5c-2,0-3.7,0.3-5,0.8c-1.3,0.5-2.3,1.2-3.1,2.2c-1.7,2.1-2.5,5.1-2.5,8.9c0,1,0.1,1.9,0.2,2.7
		c0.1,0.8,0.3,1.6,0.5,2.4c0.4,1.4,1,2.7,1.9,3.7c0.4,0.5,0.8,0.9,1.3,1.3s1.1,0.7,1.6,1c0.6,0.3,1.2,0.5,2,0.6
		c0.7,0.1,1.5,0.2,2.4,0.2l1.4,0l1.4-0.1V41.4h13v23.7l-1.1,0.4c-1.2,0.5-3.1,1-5.7,1.5c-2.6,0.5-5.8,0.8-9.6,0.8
		c-1.7,0-3.3-0.1-4.8-0.4c-1.5-0.3-3-0.7-4.4-1.2c-1.4-0.5-2.7-1.2-3.9-2c-1.2-0.8-2.3-1.7-3.3-2.7c-1-1-1.9-2.2-2.7-3.4
		c-0.8-1.2-1.4-2.6-1.9-4.1c-0.5-1.5-0.9-3-1.2-4.7c-0.3-1.7-0.4-3.4-0.4-5.2c0-3.7,0.6-7,1.8-10c0.6-1.5,1.3-2.8,2.1-4
		c0.8-1.3,1.7-2.4,2.8-3.4c1-1,2.2-1.9,3.4-2.7c1.2-0.8,2.5-1.4,3.9-2c1.4-0.5,2.8-0.9,4.3-1.2c1.5-0.3,3-0.4,4.5-0.4
		c1,0,2,0,2.9,0.1c0.9,0.1,1.8,0.2,2.7,0.3c0.9,0.1,1.7,0.3,2.3,0.4c0.8,0.2,1.4,0.4,2,0.5c0.6,0.2,1.1,0.4,1.7,0.6
		c0.6,0.2,1,0.4,1.4,0.6l1,0.5c0.3,0.1,0.5,0.3,0.8,0.4l1.2,0.8l-3.9,10.8l-1.8-1c-0.6-0.3-1.2-0.6-1.9-0.9
		c-0.7-0.3-1.4-0.5-2.2-0.8c-0.8-0.2-1.5-0.4-2.3-0.5C159.1,32.5,158.2,32.5,157.3,32.5L157.3,32.5z M298.6,65.3V21.7h31.8v11.5
		h-18.8v4.6h16.7v11.3h-16.7v6.5h20.2v11.5h-33.2L298.6,65.3L298.6,65.3z M273.7,67.6c-1,0-2.2,0-3.5-0.1c-1.2,0-2.4-0.1-3.5-0.2
		c-1.2-0.1-2.4-0.2-3.6-0.4c-1.2-0.2-2.5-0.4-3.7-0.7l-1.4-0.3V22.6l1.5-0.3c1-0.2,2-0.3,3.1-0.5c1.1-0.1,2.3-0.3,3.4-0.4
		c1.1-0.1,2.2-0.2,3.4-0.2c1.2,0,2.2-0.1,3.2-0.1c1.4,0,2.7,0,4,0.1c1.3,0.1,2.5,0.3,3.7,0.5c1.2,0.2,2.3,0.5,3.4,0.8
		c1.1,0.4,2,0.8,3,1.3c0.9,0.5,1.8,1.2,2.5,1.9c0.7,0.7,1.4,1.5,1.9,2.4c0.5,0.9,0.9,1.9,1.2,3c0.3,1.1,0.4,2.2,0.4,3.5
		c0,3-1.1,5.5-3.2,7.6c1.6,1,2.8,2.2,3.6,3.6c0.6,1,1,2.1,1.3,3.2c0.3,1.1,0.4,2.3,0.4,3.5c0,2.5-0.5,4.6-1.4,6.5
		c-0.9,1.9-2.3,3.5-4.2,4.8c-1.8,1.2-4,2.2-6.6,2.8C279.9,67.3,277,67.6,273.7,67.6L273.7,67.6z M270.8,48.9v7.4l0.5,0l1.2,0l1.4,0
		c1.3,0,2.5-0.1,3.5-0.3c1-0.2,1.8-0.4,2.6-0.8c0.5-0.2,0.9-0.6,1.2-1c0.3-0.5,0.4-1.1,0.4-1.9c0-1.2-0.4-2.1-1.3-2.6
		c-0.6-0.3-1.3-0.6-2.1-0.7c-0.9-0.2-2-0.3-3.2-0.3L270.8,48.9L270.8,48.9z M270.8,38.1h2.8c2.6,0,4.3-0.3,5.3-0.9
		c0.3-0.2,0.6-0.5,0.7-0.8c0.2-0.3,0.3-0.8,0.3-1.3c0-0.5-0.1-1-0.3-1.3c-0.2-0.3-0.4-0.5-0.7-0.7c-0.5-0.3-1.1-0.5-1.9-0.6
		c-0.8-0.1-1.8-0.2-3-0.2h-1.2l-1.3,0l-0.7,0L270.8,38.1L270.8,38.1z M221.8,44.3c0,1,0.1,1.9,0.2,2.7c0.1,0.8,0.3,1.6,0.5,2.3
		c0.2,0.7,0.5,1.4,0.8,2c0.3,0.6,0.7,1.2,1.1,1.7c0.4,0.5,0.8,0.9,1.3,1.3c0.5,0.4,1,0.7,1.6,1c0.6,0.3,1.2,0.5,1.8,0.6
		c0.7,0.1,1.4,0.2,2.2,0.2c0.8,0,1.5-0.1,2.1-0.2c0.6-0.1,1.2-0.3,1.8-0.6c1.1-0.5,2.1-1.3,2.9-2.2c0.4-0.5,0.7-1,1.1-1.7
		c0.3-0.6,0.6-1.3,0.8-2c0.2-0.7,0.4-1.5,0.5-2.3c0.1-0.8,0.2-1.7,0.2-2.7c0-1-0.1-1.9-0.2-2.7c-0.1-0.8-0.3-1.6-0.5-2.4
		c-0.2-0.7-0.5-1.4-0.8-2c-0.3-0.6-0.7-1.2-1.1-1.7c-0.8-1-1.7-1.7-2.9-2.2c-0.6-0.3-1.2-0.5-1.8-0.6c-0.6-0.1-1.4-0.2-2.1-0.2
		c-0.8,0-1.5,0.1-2.1,0.2c-0.6,0.1-1.2,0.3-1.8,0.6c-0.6,0.3-1.1,0.6-1.6,1c-0.5,0.4-0.9,0.8-1.3,1.3c-0.8,1-1.4,2.2-1.9,3.7
		c-0.2,0.8-0.4,1.5-0.5,2.4C221.8,42.5,221.8,43.4,221.8,44.3L221.8,44.3z M253.7,44.3c0,3.8-0.6,7.2-1.7,10.1
		c-1.2,3-2.8,5.4-4.8,7.4c-1,1-2.1,1.9-3.4,2.7c-1.2,0.8-2.5,1.4-3.9,1.9c-1.4,0.5-2.8,0.9-4.3,1.1c-1.5,0.2-3,0.4-4.6,0.4
		c-3.1,0-6-0.5-8.7-1.5c-1.4-0.5-2.7-1.1-3.9-1.9c-1.2-0.8-2.3-1.6-3.4-2.6c-1-1-2-2.1-2.8-3.4c-0.8-1.2-1.5-2.6-2.1-4.1
		c-0.6-1.5-1-3.1-1.3-4.8c-0.3-1.7-0.4-3.5-0.4-5.4c0-1.9,0.2-3.7,0.5-5.4c0.3-1.7,0.8-3.3,1.4-4.8c0.6-1.5,1.3-2.8,2.1-4.1
		c0.8-1.2,1.8-2.4,2.8-3.4c1-1,2.2-1.9,3.4-2.7c1.2-0.8,2.5-1.4,3.9-1.9c2.7-1,5.6-1.5,8.6-1.5c3.1,0,6,0.5,8.7,1.5
		c1.4,0.5,2.7,1.1,3.9,1.9c1.2,0.8,2.4,1.7,3.4,2.7c1,1,2,2.2,2.8,3.4c0.8,1.2,1.5,2.6,2.1,4.1C253.1,37.2,253.7,40.5,253.7,44.3
		L253.7,44.3z M209,57.2v9.9h-31.5V21.7h13v33.8H209V57.2z"/>
	<path class="st1" d="M374.6,44.3c0,3.9-0.6,7.3-1.8,10.2c-1.2,2.9-2.9,5.3-5.2,7.2c-2.2,1.9-4.9,3.3-8,4.2
		c-3.1,0.9-6.5,1.4-10.2,1.4c-1.8,0-3.8-0.1-6-0.2c-2.2-0.2-4.2-0.4-6-0.9V22.4c1.8-0.4,3.8-0.7,6-0.9c2.2-0.2,4.2-0.2,6-0.2
		c3.7,0,7.1,0.5,10.2,1.4c3.1,0.9,5.7,2.3,8,4.2s3.9,4.3,5.2,7.2S374.6,40.4,374.6,44.3L374.6,44.3z M473.5,67
		c-0.7-2-1.4-3.9-2.1-5.8c-0.7-1.9-1.3-3.8-2-5.8h-20.5L444.8,67h-6.6c1.7-4.8,3.4-9.2,4.9-13.3c1.5-4.1,3-7.9,4.5-11.6
		c1.5-3.7,2.9-7.1,4.3-10.5c1.4-3.3,2.9-6.6,4.5-9.9h5.8c1.6,3.3,3.1,6.6,4.5,9.9c1.4,3.3,2.9,6.8,4.3,10.5
		c1.5,3.7,2.9,7.5,4.5,11.6c1.5,4.1,3.2,8.5,4.9,13.3H473.5z M467.5,50.2c-1.4-3.8-2.8-7.5-4.1-11c-1.4-3.5-2.8-7-4.3-10.2
		c-1.5,3.3-3,6.7-4.3,10.2c-1.4,3.5-2.7,7.2-4.1,11H467.5L467.5,50.2z M445.1,21.8v5.5h-14.2V67h-6.3V27.2h-14.2v-5.5H445.1z
		 M409.4,67c-0.7-2-1.4-3.9-2.1-5.8c-0.7-1.9-1.3-3.8-2-5.8h-20.5L380.7,67h-6.6c1.7-4.8,3.4-9.2,4.9-13.3c1.5-4.1,3-7.9,4.5-11.6
		c1.5-3.7,2.9-7.1,4.3-10.5c1.4-3.3,2.9-6.6,4.5-9.9h5.8c1.6,3.3,3.1,6.6,4.5,9.9c1.4,3.3,2.9,6.8,4.3,10.5
		c1.5,3.7,2.9,7.5,4.5,11.6c1.5,4.1,3.2,8.5,4.9,13.3H409.4z M403.5,50.2c-1.4-3.8-2.8-7.5-4.1-11c-1.4-3.5-2.8-7-4.3-10.2
		c-1.5,3.3-3,6.7-4.3,10.2c-1.4,3.5-2.7,7.2-4.1,11H403.5L403.5,50.2z M350,61.8c6,0,10.5-1.5,13.4-4.6c3-3.1,4.4-7.4,4.4-12.9
		s-1.5-9.8-4.4-12.9c-3-3.1-7.4-4.6-13.4-4.6c-1.8,0-3.2,0-4.1,0.1c-1,0-1.7,0.1-2.1,0.1v34.6c0.4,0,1.1,0.1,2.1,0.1
		C346.9,61.8,348.3,61.8,350,61.8L350,61.8z"/>
	<path class="st1" d="M73.9,0c7.2,1.6,13.9,4.9,19.7,9.4c10.1,7.9,17.1,19.6,18.8,33.2c1.7,13.7-2.3,26.7-10.2,36.8
		c-7.9,10.1-19.6,17.1-33.2,18.8C55.3,99.9,42.2,95.8,32.2,88C22.1,80.1,15,68.4,13.3,54.8c-0.6-4.8-0.5-9.5,0.3-14.1L35,69.1l0,0
		c0.6,0.8,1.4,1.4,2.4,1.9c3,1.2,6.4-0.1,7.6-3.1L73.9,0L73.9,0z"/>
	<path class="st1" d="M4.8,8.4l47.4-5.8c3-0.4,5.7,1.8,6.1,4.8c0.1,1.2-0.1,2.3-0.6,3.2L39.3,54.1c-1.2,2.8-4.4,4.1-7.2,2.9
		c-0.9-0.4-1.7-1-2.2-1.7l0,0L1.1,17.1c-1.8-2.4-1.3-5.8,1.1-7.7C3,8.9,3.9,8.5,4.8,8.4C4.8,8.4,4.8,8.4,4.8,8.4z"/>
	<path class="st1" d="M275.1,89c-0.8,0-1.4-0.1-2-0.4c-0.6-0.2-1-0.6-1.4-1c-0.4-0.4-0.6-0.9-0.8-1.5c-0.2-0.6-0.3-1.2-0.3-1.8v-7.4
		h1.7v7.2c0,1.2,0.3,2,0.8,2.6c0.5,0.5,1.2,0.8,2.1,0.8c0.4,0,0.8-0.1,1.2-0.2c0.3-0.1,0.6-0.3,0.9-0.6c0.3-0.3,0.4-0.6,0.6-1.1
		c0.1-0.4,0.2-0.9,0.2-1.5v-7.2h1.7v7.4c0,0.7-0.1,1.3-0.3,1.8c-0.2,0.6-0.4,1.1-0.8,1.5c-0.4,0.4-0.8,0.7-1.4,1
		C276.5,88.8,275.9,89,275.1,89L275.1,89z M290.6,88.7c-0.3-0.4-0.5-0.9-0.9-1.4c-0.3-0.5-0.7-1.1-1.1-1.6c-0.4-0.6-0.8-1.1-1.2-1.7
		c-0.4-0.6-0.8-1.1-1.2-1.7s-0.8-1.1-1.2-1.5c-0.4-0.5-0.7-0.9-1-1.3v9.2h-1.6V76.9h1.3c0.5,0.6,1.1,1.2,1.7,2
		c0.6,0.8,1.2,1.5,1.8,2.3c0.6,0.8,1.2,1.6,1.7,2.4c0.5,0.8,1,1.5,1.3,2.1v-8.8h1.6v11.8H290.6z M294.9,76.9h1.7v11.8h-1.7V76.9z
		 M309.1,76.9c-0.4,1.3-0.8,2.4-1.2,3.5c-0.4,1.1-0.8,2.1-1.2,3c-0.4,1-0.8,1.9-1.1,2.7c-0.4,0.9-0.7,1.7-1.1,2.6h-1.6
		c-0.4-0.9-0.8-1.7-1.1-2.6c-0.4-0.9-0.7-1.8-1.1-2.7c-0.4-1-0.8-2-1.2-3c-0.4-1.1-0.8-2.2-1.2-3.5h1.8c0.6,1.8,1.2,3.5,1.8,5.2
		c0.6,1.7,1.2,3.2,1.8,4.7c0.6-1.4,1.2-3,1.8-4.7c0.6-1.7,1.2-3.4,1.8-5.2L309.1,76.9L309.1,76.9z M310.7,88.7V76.9h7.2v1.4h-5.6
		v3.5h5v1.4h-5v4.1h6v1.4H310.7z M326.3,83.7c0.2,0.2,0.4,0.5,0.7,0.9c0.3,0.4,0.6,0.8,0.9,1.2c0.3,0.5,0.6,0.9,0.9,1.4
		c0.3,0.5,0.5,1,0.7,1.4h-1.8c-0.2-0.4-0.5-0.9-0.7-1.3c-0.3-0.4-0.5-0.9-0.8-1.3c-0.3-0.4-0.5-0.8-0.8-1.1
		c-0.3-0.4-0.5-0.7-0.7-0.9c-0.1,0-0.3,0-0.5,0c-0.2,0-0.3,0-0.5,0h-1.5v4.6h-1.7V77c0.5-0.1,1-0.2,1.6-0.2c0.6,0,1.1-0.1,1.6-0.1
		c1.7,0,2.9,0.3,3.8,0.9c0.9,0.6,1.3,1.6,1.3,2.8c0,0.8-0.2,1.5-0.6,2C327.7,83.1,327.1,83.5,326.3,83.7L326.3,83.7z M323.7,78.2
		c-0.7,0-1.2,0-1.6,0.1v4.5h1.2c0.6,0,1.1,0,1.5-0.1c0.5-0.1,0.8-0.2,1.2-0.3s0.6-0.4,0.7-0.7c0.2-0.3,0.3-0.7,0.3-1.2
		c0-0.4-0.1-0.8-0.3-1.1c-0.2-0.3-0.4-0.5-0.7-0.7c-0.3-0.2-0.6-0.3-1-0.4C324.6,78.2,324.2,78.2,323.7,78.2L323.7,78.2z M334,87.5
		c1.7,0,2.6-0.6,2.6-1.8c0-0.4-0.1-0.7-0.2-0.9c-0.2-0.3-0.4-0.5-0.6-0.7c-0.3-0.2-0.6-0.4-0.9-0.5c-0.3-0.1-0.7-0.3-1.1-0.4
		c-0.4-0.1-0.8-0.3-1.2-0.5c-0.4-0.2-0.7-0.4-1-0.7c-0.3-0.3-0.5-0.6-0.7-0.9c-0.2-0.4-0.2-0.8-0.2-1.3c0-1,0.4-1.8,1.1-2.4
		c0.7-0.6,1.7-0.9,2.9-0.9c0.7,0,1.4,0.1,2,0.2c0.6,0.2,1,0.3,1.3,0.5l-0.5,1.4c-0.2-0.1-0.6-0.3-1.1-0.4c-0.5-0.1-1-0.2-1.6-0.2
		c-0.3,0-0.6,0-0.9,0.1c-0.3,0.1-0.5,0.2-0.7,0.3c-0.2,0.1-0.4,0.3-0.5,0.5c-0.1,0.2-0.2,0.5-0.2,0.7c0,0.3,0.1,0.6,0.2,0.8
		c0.1,0.2,0.3,0.4,0.5,0.6c0.2,0.2,0.5,0.3,0.8,0.5c0.3,0.1,0.6,0.3,1,0.4c0.5,0.2,1,0.4,1.4,0.6c0.4,0.2,0.8,0.5,1.1,0.7
		c0.3,0.3,0.6,0.6,0.7,1c0.2,0.4,0.3,0.9,0.3,1.4c0,1-0.4,1.8-1.1,2.4c-0.8,0.6-1.8,0.8-3.2,0.8c-0.5,0-0.9,0-1.3-0.1
		c-0.4-0.1-0.7-0.1-1.1-0.2c-0.3-0.1-0.6-0.2-0.8-0.3c-0.2-0.1-0.4-0.2-0.5-0.2l0.5-1.4c0.3,0.1,0.7,0.3,1.2,0.5
		C332.5,87.4,333.2,87.5,334,87.5L334,87.5z M340.3,88.7V76.9h7.2v1.4H342v3.5h5v1.4h-5v4.1h6v1.4H340.3L340.3,88.7z M353.5,82.8
		c0-1,0.1-1.9,0.5-2.7c0.3-0.8,0.7-1.4,1.2-1.9c0.5-0.5,1.1-0.9,1.8-1.2c0.7-0.3,1.4-0.4,2.2-0.4c0.8,0,1.5,0.1,2.2,0.4
		c0.7,0.3,1.3,0.7,1.8,1.2c0.5,0.5,0.9,1.2,1.2,1.9c0.3,0.8,0.5,1.7,0.5,2.7c0,1-0.1,1.9-0.5,2.7c-0.3,0.8-0.7,1.4-1.2,1.9
		c-0.5,0.5-1.1,0.9-1.8,1.2c-0.7,0.3-1.4,0.4-2.2,0.4c-0.8,0-1.5-0.1-2.2-0.4c-0.7-0.3-1.3-0.7-1.8-1.2c-0.5-0.5-0.9-1.2-1.2-1.9
		C353.7,84.7,353.5,83.8,353.5,82.8z M355.3,82.8c0,0.7,0.1,1.4,0.3,2s0.4,1.1,0.8,1.5c0.3,0.4,0.7,0.7,1.2,0.9
		c0.5,0.2,1,0.3,1.6,0.3c0.6,0,1.1-0.1,1.6-0.3s0.9-0.5,1.2-0.9c0.3-0.4,0.6-0.9,0.8-1.5c0.2-0.6,0.3-1.2,0.3-2c0-0.7-0.1-1.4-0.3-2
		c-0.2-0.6-0.4-1.1-0.8-1.5c-0.3-0.4-0.7-0.7-1.2-0.9c-0.5-0.2-1-0.3-1.6-0.3c-0.6,0-1.1,0.1-1.6,0.3c-0.5,0.2-0.9,0.5-1.2,0.9
		c-0.3,0.4-0.6,0.9-0.8,1.5C355.4,81.4,355.3,82.1,355.3,82.8z M367.3,88.7V76.9h7.1v1.4H369v3.6h4.9v1.4H369v5.5H367.3z
		 M380.4,76.9h1.7v11.8h-1.7V76.9z M393.2,88.7c-0.3-0.4-0.5-0.9-0.9-1.4c-0.3-0.5-0.7-1.1-1.1-1.6c-0.4-0.6-0.8-1.1-1.2-1.7
		c-0.4-0.6-0.8-1.1-1.2-1.7c-0.4-0.5-0.8-1.1-1.2-1.5c-0.4-0.5-0.7-0.9-1-1.3v9.2H385V76.9h1.3c0.5,0.6,1.1,1.2,1.7,2
		c0.6,0.8,1.2,1.5,1.8,2.3c0.6,0.8,1.2,1.6,1.7,2.4c0.5,0.8,1,1.5,1.3,2.1v-8.8h1.6v11.8H393.2L393.2,88.7z M405.6,88.7
		c-0.2-0.4-0.5-0.9-0.9-1.4c-0.3-0.5-0.7-1.1-1.1-1.6c-0.4-0.6-0.8-1.1-1.2-1.7c-0.4-0.6-0.8-1.1-1.2-1.7c-0.4-0.5-0.8-1.1-1.2-1.5
		c-0.4-0.5-0.7-0.9-1-1.3v9.2h-1.6V76.9h1.3c0.5,0.6,1.1,1.2,1.7,2c0.6,0.8,1.2,1.5,1.8,2.3c0.6,0.8,1.2,1.6,1.7,2.4
		c0.5,0.8,1,1.5,1.3,2.1v-8.8h1.6v11.8H405.6L405.6,88.7z M409.4,82.8c0-1,0.2-1.9,0.5-2.7c0.3-0.8,0.7-1.4,1.2-1.9
		c0.5-0.5,1.1-0.9,1.8-1.2c0.7-0.3,1.4-0.4,2.2-0.4c0.8,0,1.5,0.1,2.2,0.4c0.7,0.3,1.3,0.7,1.8,1.2c0.5,0.5,0.9,1.2,1.2,1.9
		c0.3,0.8,0.5,1.7,0.5,2.7c0,1-0.2,1.9-0.5,2.7c-0.3,0.8-0.7,1.4-1.2,1.9c-0.5,0.5-1.1,0.9-1.8,1.2c-0.7,0.3-1.4,0.4-2.2,0.4
		c-0.8,0-1.5-0.1-2.2-0.4c-0.7-0.3-1.3-0.7-1.8-1.2c-0.5-0.5-0.9-1.2-1.2-1.9C409.6,84.7,409.4,83.8,409.4,82.8z M411.2,82.8
		c0,0.7,0.1,1.4,0.3,2s0.4,1.1,0.8,1.5c0.3,0.4,0.7,0.7,1.2,0.9c0.5,0.2,1,0.3,1.6,0.3c0.6,0,1.1-0.1,1.6-0.3s0.9-0.5,1.2-0.9
		c0.3-0.4,0.6-0.9,0.8-1.5c0.2-0.6,0.3-1.2,0.3-2c0-0.7-0.1-1.4-0.3-2c-0.2-0.6-0.4-1.1-0.8-1.5c-0.3-0.4-0.7-0.7-1.2-0.9
		c-0.5-0.2-1-0.3-1.6-0.3c-0.6,0-1.1,0.1-1.6,0.3c-0.5,0.2-0.9,0.5-1.2,0.9c-0.3,0.4-0.6,0.9-0.8,1.5
		C411.3,81.4,411.2,82.1,411.2,82.8z M432.5,76.9c-0.4,1.3-0.8,2.4-1.2,3.5c-0.4,1.1-0.8,2.1-1.2,3c-0.4,1-0.7,1.9-1.1,2.7
		c-0.4,0.9-0.7,1.7-1.1,2.6h-1.6c-0.4-0.9-0.8-1.7-1.1-2.6c-0.4-0.9-0.7-1.8-1.1-2.7c-0.4-1-0.8-2-1.2-3c-0.4-1.1-0.8-2.2-1.2-3.5
		h1.8c0.6,1.8,1.2,3.5,1.8,5.2c0.6,1.7,1.2,3.2,1.8,4.7c0.6-1.4,1.2-3,1.8-4.7c0.6-1.7,1.2-3.4,1.8-5.2L432.5,76.9L432.5,76.9z
		 M441,88.7c-0.2-0.5-0.4-1-0.5-1.5c-0.2-0.5-0.4-1-0.5-1.5h-5.4l-1.1,3h-1.7c0.5-1.3,0.9-2.4,1.3-3.5c0.4-1.1,0.8-2.1,1.2-3
		c0.4-1,0.8-1.9,1.1-2.7c0.4-0.9,0.8-1.7,1.2-2.6h1.5c0.4,0.9,0.8,1.7,1.2,2.6c0.4,0.9,0.8,1.8,1.1,2.7c0.4,1,0.8,2,1.2,3
		s0.8,2.2,1.3,3.5H441L441,88.7z M439.4,84.3c-0.4-1-0.7-2-1.1-2.9c-0.4-0.9-0.7-1.8-1.1-2.7c-0.4,0.9-0.8,1.7-1.1,2.7
		c-0.4,0.9-0.7,1.9-1.1,2.9H439.4L439.4,84.3z M451.2,76.9v1.4h-3.7v10.4h-1.7V78.3h-3.7v-1.4L451.2,76.9L451.2,76.9z M453,76.9h1.7
		v11.8H453V76.9z M457.1,82.8c0-1,0.2-1.9,0.5-2.7c0.3-0.8,0.7-1.4,1.2-1.9c0.5-0.5,1.1-0.9,1.8-1.2c0.7-0.3,1.4-0.4,2.2-0.4
		c0.8,0,1.5,0.1,2.2,0.4c0.7,0.3,1.3,0.7,1.8,1.2c0.5,0.5,0.9,1.2,1.2,1.9c0.3,0.8,0.5,1.7,0.5,2.7c0,1-0.2,1.9-0.5,2.7
		c-0.3,0.8-0.7,1.4-1.2,1.9c-0.5,0.5-1.1,0.9-1.8,1.2c-0.7,0.3-1.4,0.4-2.2,0.4c-0.8,0-1.5-0.1-2.2-0.4c-0.7-0.3-1.3-0.7-1.8-1.2
		c-0.5-0.5-0.9-1.2-1.2-1.9C457.2,84.7,457.1,83.8,457.1,82.8z M458.8,82.8c0,0.7,0.1,1.4,0.3,2c0.2,0.6,0.4,1.1,0.8,1.5
		c0.3,0.4,0.7,0.7,1.2,0.9c0.5,0.2,1,0.3,1.6,0.3c0.6,0,1.1-0.1,1.6-0.3c0.5-0.2,0.9-0.5,1.2-0.9c0.3-0.4,0.6-0.9,0.8-1.5
		c0.2-0.6,0.3-1.2,0.3-2c0-0.7-0.1-1.4-0.3-2s-0.4-1.1-0.8-1.5c-0.3-0.4-0.7-0.7-1.2-0.9c-0.5-0.2-1-0.3-1.6-0.3
		c-0.6,0-1.1,0.1-1.6,0.3c-0.5,0.2-0.9,0.5-1.2,0.9c-0.3,0.4-0.6,0.9-0.8,1.5C458.9,81.4,458.8,82.1,458.8,82.8z M479,88.7
		c-0.3-0.4-0.5-0.9-0.9-1.4c-0.3-0.5-0.7-1.1-1.1-1.6c-0.4-0.6-0.8-1.1-1.2-1.7c-0.4-0.6-0.8-1.1-1.2-1.7c-0.4-0.5-0.8-1.1-1.2-1.5
		c-0.4-0.5-0.7-0.9-1-1.3v9.2h-1.6V76.9h1.3c0.5,0.6,1.1,1.2,1.7,2c0.6,0.8,1.2,1.5,1.8,2.3c0.6,0.8,1.2,1.6,1.7,2.4
		c0.5,0.8,1,1.5,1.3,2.1v-8.8h1.6v11.8H479L479,88.7z"/>
</g>
</svg>
