<?xml version="1.0" encoding="utf-8"?>
<!-- Generator: Adobe Illustrator 26.5.0, SVG Export Plug-In . SVG Version: 6.00 Build 0)  -->
<svg version="1.1" id="Layer_1" xmlns="http://www.w3.org/2000/svg" xmlns:xlink="http://www.w3.org/1999/xlink" x="0px" y="0px"
	 viewBox="0 0 269.4 62.9" style="enable-background:new 0 0 269.4 62.9;" xml:space="preserve">
<style type="text/css">
	.st0{fill:#F1F1F1;}
</style>
<g id="Group_2140" transform="translate(-50 -50)">
	<path id="Path_1" class="st0" d="M99.1,110.8H80L65.4,88.1v22.7H50v-59h23.9c7,0,12.1,2.1,15.5,6.3c2.7,3.4,4.1,7.6,4.1,11.9
		c0.2,4.6-1.5,9.2-4.7,12.5c-2.3,2.1-5.1,3.6-8.2,4.2L99.1,110.8z M77.5,70.8c0-2-0.8-3.9-2.3-5.3c-2-1.5-4.5-2.2-7-2h-2.9v14.7h2.9
		c2.5,0.2,5-0.5,7-2C76.7,74.8,77.5,72.8,77.5,70.8z"/>
	<path id="Path_2" class="st0" d="M146.4,91.3c0,10-4.4,16.5-13.1,19.5c-3.2,1.1-6.5,1.6-9.9,1.6c-7.4,0-14.6-2.3-20.5-6.7l6.6-12.4
		c4.6,4.2,9.1,6.3,13.6,6.3c1.8,0.1,3.6-0.4,5.1-1.4c1.6-0.9,2.5-2.6,2.4-4.5c0-1.8-1.1-3.5-2.7-4.4c-2.1-1.2-4.4-2.1-6.7-2.7
		c-3.8-1.1-6.2-1.9-7.2-2.3c-1.4-0.6-2.8-1.4-4-2.3c-3.3-3-5.1-7.3-4.7-11.8c-0.4-10.6,7.8-19.5,18.4-20c0.6,0,1.2,0,1.7,0
		c6.5,0,13,1.7,18.7,4.8l-6.1,11.9c-2.8-2.4-6.4-3.8-10.1-3.9c-1.6,0-3.1,0.4-4.4,1.3c-1.4,0.8-2.2,2.2-2.2,3.8
		c0.1,1.8,1.3,3.3,2.9,4c2.5,1.1,5.1,2,7.8,2.7c4.5,1,8.5,3.4,11.6,6.8C145.5,84.4,146.6,87.8,146.4,91.3z"/>
	<path id="Path_3" class="st0" d="M191.1,64.6h-12.7v46.2h-15.4V64.6h-12.5V51.8h40.6L191.1,64.6z"/>
	<path id="Path_4" class="st0" d="M260.6,81.5c0.1,7.8-2.8,15.3-8,21.1c-6.1,6.9-14.3,10.3-24.7,10.3c-10.4,0-18.6-3.4-24.7-10.3
		c-5.2-5.8-8.1-13.3-8-21.1c0-3.9,0.8-7.7,2.2-11.3c1.3-3.6,3.3-7,5.8-9.9c6.1-6.9,14.3-10.3,24.7-10.3c10.4,0,18.6,3.4,24.7,10.3
		C257.8,66.1,260.7,73.7,260.6,81.5z M244.7,81.5c0.1-4-1.4-7.8-4-10.8c-6-7-16.6-7.9-23.6-1.9c-3.7,3.2-5.9,7.8-5.9,12.7
		c0,3.9,1.4,7.7,4,10.7c3.1,3.8,7.8,6,12.7,5.9c9.2,0.1,16.7-7.3,16.8-16.4C244.7,81.6,244.7,81.5,244.7,81.5z"/>
	<path id="Path_5" class="st0" d="M319.4,111.1h-19.1l-14.7-22.7v22.7h-15.4v-59h23.9c7,0,12.1,2.1,15.5,6.3
		c2.7,3.4,4.1,7.6,4.1,11.9c0.2,4.6-1.5,9.2-4.7,12.5c-2.3,2.1-5.1,3.6-8.2,4.2L319.4,111.1z M297.8,71.1c0-2-0.8-3.9-2.3-5.3
		c-2-1.5-4.5-2.2-7-2h-2.9v14.7h2.9c2.5,0.2,5-0.5,7-2C297,75.1,297.8,73.1,297.8,71.1z"/>
</g>
</svg>
