<?xml version="1.0" encoding="utf-8"?>
<!-- Generator: Adobe Illustrator 26.5.0, SVG Export Plug-In . SVG Version: 6.00 Build 0)  -->
<svg version="1.1" id="Layer_1" xmlns="http://www.w3.org/2000/svg" xmlns:xlink="http://www.w3.org/1999/xlink" x="0px" y="0px"
	 viewBox="0 0 368.1 94.9" style="enable-background:new 0 0 368.1 94.9;" xml:space="preserve">
<style type="text/css">
	.st0{fill-rule:evenodd;clip-rule:evenodd;fill:#F1F1F1;}
	.st1{fill:#F1F1F1;}
	.st2{font-family:'Helvetica';}
	.st3{font-size:14.7067px;}
</style>
<g>
	<path class="st0" d="M352.8,67.7c-4.4,12.4-16.3,20.4-35.9,20.4c-16.3,0-32.3-9.4-28.2-31.2c3-18.5,19.9-30.7,39.2-30.7
		c21.5,0,31.2,14.6,27.6,32l-0.8,3.9h-40.6c0,0.6-0.6,2.5-0.6,4.4c0,5.3,2.8,7.2,6.1,7.2c3.6,0,6.9-2.2,8.6-6.1L352.8,67.7
		L352.8,67.7z M332.1,50l0.3-1.4c0.8-4.7-1.4-8-6.1-8c-4.4,0-8.3,3-9.4,9.4L332.1,50L332.1,50z M284.9,27.3c-6.4,0-11.3,3.3-14.6,8
		h-0.6l1.1-7.4h-26.2l-1.7,7.7l14.4-1.7l-0.3,1.4l-14.6,2.5l-10.2,48.6h28.2c0,0,2.8-14.1,4.7-22.1c2.8-13.3,9.9-16,14.6-16
		c4.1,0,6.6,1.7,7.2,2.2l4.7-21.5C291,28.7,288.8,27.4,284.9,27.3 M28.7,52.2C17.3,48.6,8.8,42,8.8,29.3c0-18.5,18.5-29,43.4-29.3
		c20.7,0,34.8,8.8,32.3,26.2H54.6c1.1-4.7-1.7-7.5-6.9-7.5c-3.9,0-6.9,1.9-7.5,4.4c-0.6,3.3,1.7,5.5,6.9,6.9
		c4.4,1.4,7.4,2.2,11.9,3.3c12.7,3.9,18.8,11.3,20.2,19.1l-37.3,3.9L28.7,52.2L28.7,52.2z M29.8,72.3l2.5-11.9h-32
		c-2.2,19.9,13.5,28.2,34,28.2c19.3,0,40-6.6,44.5-24.3L29.8,72.3L29.8,72.3z M195.7,32c2.2-1.7,7.7-5.8,16-5.8
		c8.6,0,15.2,3.6,18.2,10.5l-65.2,6.9l8.6-41.4h28.2L195.2,32H195.7z M194.1,45.6c-1.7,2.5-3.3,6.1-4.4,11.3
		c-2.5,11.6,0.3,14.6,3.6,14.6c4.7,0,8.6-4.4,10.5-14.4c1.1-6.4,0.8-11-0.8-13l28.2-4.4c1.4,4.4,1.7,10.2,0.3,16.6
		c-4.1,21-16.8,31.8-30.9,31.8c-6.3,0-13.5-1.7-16.3-8.6h-0.8l-2.2,6.9h-25.4l7.5-35.9L194.1,45.6L194.1,45.6z M116.5,45.6
		c0.8-3.6,3.6-6.3,7.2-6.3c3.3,0,5,3,4.1,6.1l-0.3,2.2l26.2-2.8c-1.9-13.5-14.4-19.3-29-19.3c-21.8,0-32.3,10.8-34.5,20.4L90,47.2
		h26.2L116.5,45.6 M84.2,63.5c-0.8,2.2-1.4,4.7-1.4,7.5c0,9.1,6.9,17.1,18.5,17.1c10.5,0,16.6-4.4,19.3-7.5h0.3l-0.6,5.8h26.5
		l6.3-30.7c0.3-1.1,0.6-2.5,0.8-3.6L84.2,63.5L84.2,63.5z M123.6,65.7c-0.8,4.4-3.9,8-8,8c-4.1,0-5.8-3.3-5.3-6.9
		c0.8-3,3.9-6.1,9.7-6.1h4.7L123.6,65.7L123.6,65.7z"/>
	<text transform="matrix(1 0 0 1 357.247 87.8468)" class="st1 st2 st3">®</text>
</g>
</svg>
