<?xml version="1.0" encoding="utf-8"?>
<!-- Generator: Adobe Illustrator 26.5.0, SVG Export Plug-In . SVG Version: 6.00 Build 0)  -->
<svg version="1.1" id="Layer_1" xmlns="http://www.w3.org/2000/svg" xmlns:xlink="http://www.w3.org/1999/xlink" x="0px" y="0px"
	 viewBox="0 0 335 86.6" style="enable-background:new 0 0 335 86.6;" xml:space="preserve">
<style type="text/css">
	.st0{fill:#F1F1F1;}
</style>
<g>
	<path class="st0" d="M156.6,50c-3.3,2.6-7.4,2.8-11.6,2.8h-6l24.2,31.6l3.4-1.9l-20.1-26.1c11,0.2,18.9-5.2,18.9-15.6
		c0-5.1-1.9-9.8-6.7-12.8c-4.5-2.9-9.7-3-15.1-3h-16.1v59.5h4.2v-56h10.6c3.9,0,8.3-0.2,11.8,1.3c4.7,1.9,7,6.3,7,10.7
		C161.2,44.1,159.8,47.7,156.6,50z"/>
	<g>
		<g>
			<path class="st0" d="M0,26.2h21.4c8.7,0,15.6,1.4,22.1,7.5c6.2,5.8,9.5,13.8,9.5,22.3c0,8.2-3.2,16-9.2,21.8
				c-6.6,6.3-13.6,7.9-22.4,7.9H0V26.2z M21.4,82.2c7.8,0,14.3-1.6,20-7.2c5.1-5.1,7.9-11.8,7.9-18.9c0-7.6-3-14.7-8.6-19.8
				c-5.7-5.1-11.8-6.5-19.3-6.5H3.8v52.4H21.4z"/>
			<path class="st0" d="M121,56c0,16.7-14.1,30.6-30.9,30.6c-16.7,0-30.9-13.8-30.9-30.6c0-16.7,14.1-30.6,30.9-30.6
				C106.9,25.5,121,39.3,121,56z M63.1,56c0,14.7,12.2,27,27.1,27c14.8,0,27.1-12.4,27.1-27c0-14.7-12.3-27-27.1-27
				C75.3,29,63.1,41.3,63.1,56z"/>
			<path class="st0" d="M203.8,36c-2.7-4.3-6.5-7-12.1-7c-6.4,0-11.2,5.1-11.2,11.4c0,6.2,5.9,8.8,10.7,11.1l11.4,5.9
				c4.5,2.8,6.8,6.5,6.8,11.8c0,9.9-9,17.3-18.6,17.3c-8.3,0-14.8-5.1-17.5-12.8l3.3-1.5c2.5,6.3,7.2,10.7,14.4,10.7
				c7.8,0,14.7-6.2,14.7-14.1c0-6.7-6.9-9.6-12-12.1l-10.7-5.7c-3.9-2.4-6.2-5.9-6.2-10.7c0-8.8,6.3-15.1,15.2-15.1
				c6,0,11.7,3.2,14.5,8.4L203.8,36z"/>
			<path class="st0" d="M296.8,82.3H335v3.6h-42V26.3h3.8V82.3z"/>
		</g>
		<path class="st0" d="M248.2,9.4L213.5,86h-4.3l39-86l39.4,86h-4.4L248.2,9.4z"/>
	</g>
</g>
</svg>
