<?xml version="1.0" encoding="utf-8"?>
<!-- Generator: Adobe Illustrator 26.5.0, SVG Export Plug-In . SVG Version: 6.00 Build 0)  -->
<svg version="1.1" id="Layer_1" xmlns="http://www.w3.org/2000/svg" xmlns:xlink="http://www.w3.org/1999/xlink" x="0px" y="0px"
	 viewBox="0 0 371.9 86" style="enable-background:new 0 0 371.9 86;" xml:space="preserve">
<style type="text/css">
	.st0{fill:#F1F1F1;}
</style>
<g>
	<polygon class="st0" points="260.5,30.1 275.2,30.1 275.2,28.4 258.7,28.4 258.7,52.6 260.5,52.6 260.5,41.2 272.1,41.2 
		272.1,39.4 260.5,39.4 	"/>
	<polygon class="st0" points="283.5,28.4 273.9,52.6 275.8,52.6 283.7,32.7 284.6,30.2 284.6,30.2 285.5,32.8 293.4,52.6 
		295.4,52.6 285.7,28.4 	"/>
	<path class="st0" d="M311.2,40.3L311.2,40.3c1.3-0.2,2.5-0.9,3.3-2c0.8-1,1.2-2.3,1.1-3.6c0-2.1-0.6-3.6-1.9-4.8
		c-1.3-1.1-3.3-1.7-5.9-1.7h-8.5v24.2h8.5c2.8,0,4.9-0.6,6.3-1.7c1.5-1.1,2.3-2.9,2.2-4.8c0-1.4-0.5-2.8-1.4-3.8
		C314,41.2,312.7,40.5,311.2,40.3z M301.1,30.1h6.7c3.9,0,5.9,1.6,5.9,4.7s-2,4.7-5.9,4.7h-6.7V30.1z M312.8,49.7
		c-1,0.8-2.6,1.2-4.7,1.2h-7.1v-9.7h7.1c2.1,0,3.6,0.4,4.7,1.2c1.1,0.9,1.6,2.2,1.6,3.6C314.5,47.4,313.9,48.8,312.8,49.7z"/>
	<path class="st0" d="M336.4,40.2c1.5-1.2,2.3-3.1,2.2-5c0.1-1.9-0.7-3.8-2.1-5c-1.4-1.2-3.4-1.8-5.8-1.8h-9v24.2h1.8V42.1h6.9
		l0.2-0.1h0.1l7,10.6h2.2l-7.1-10.8C334.1,41.6,335.3,41.1,336.4,40.2z M323.5,40.4V30.1h7.1c2,0,3.5,0.4,4.5,1.3
		c1.1,1,1.6,2.4,1.6,3.8c0.1,1.4-0.5,2.9-1.6,3.8c-1,0.9-2.5,1.3-4.5,1.3H323.5z"/>
	<rect x="344.1" y="28.4" class="st0" width="1.8" height="24.2"/>
	<path class="st0" d="M370.1,45.8c-0.4,1.7-1.5,3.1-2.9,4.1c-1.5,1-3.2,1.5-5,1.4c-1.7,0-3.3-0.4-4.8-1.3c-1.4-0.9-2.5-2.2-3.2-3.7
		c-0.8-1.8-1.2-3.8-1.1-5.8c0-2,0.4-4,1.2-5.8c0.7-1.5,1.8-2.8,3.2-3.7c1.4-0.9,3.1-1.3,4.8-1.3c1.7-0.1,3.4,0.4,4.8,1.3
		c1.3,1,2.2,2.3,2.7,3.8l1.8-0.8c-0.4-1.2-1.1-2.3-1.9-3.3c-0.9-0.9-1.9-1.6-3.1-2c-1.4-0.5-2.8-0.7-4.3-0.7c-2,0-4,0.5-5.8,1.5
		c-1.7,1-3,2.5-3.8,4.3c-1,2.1-1.4,4.3-1.4,6.6c-0.1,2.3,0.4,4.6,1.4,6.6c0.8,1.8,2.2,3.3,3.8,4.3c1.7,1,3.7,1.6,5.8,1.5
		c1.5,0,2.9-0.2,4.3-0.8c1.3-0.5,2.4-1.3,3.3-2.2c0.9-1,1.6-2.2,2.1-3.5L370.1,45.8z"/>
	<polygon class="st0" points="217.3,42.4 227.6,42.4 227.6,38.5 217.3,38.5 217.3,32.5 230.3,32.5 230.3,28.4 212.2,28.4 
		212.2,52.6 230.9,52.6 230.9,48.5 217.3,48.5 	"/>
	<polygon class="st0" points="233.3,28.4 233.3,32.5 241.5,32.5 241.5,52.6 246.5,52.6 246.5,32.5 254.6,32.5 254.6,28.4 	"/>
	<path class="st0" d="M137.5,32c-0.7-1.2-1.8-2.1-3.1-2.7c-1.5-0.7-3.1-1-4.8-0.9h-10.2v24.2h5.1V44h5.1c1.6,0,3.3-0.3,4.8-0.9
		c1.3-0.6,2.3-1.5,3.1-2.7c0.8-1.3,1.1-2.7,1.1-4.2C138.7,34.7,138.3,33.3,137.5,32z M132.3,39c-0.8,0.6-1.9,1-3.4,1h-4.3v-7.6h4.3
		c1.5,0,2.7,0.3,3.4,1c0.8,0.7,1.2,1.8,1.1,2.9C133.6,37.3,133.1,38.3,132.3,39z"/>
	<path class="st0" d="M146.9,28.4l-8.8,24.2h5.2l2-5.9h9.3l2,5.9h5.2l-8.8-24.2H146.9z M146.5,42.9l2.3-6.9l1-3.6h0.1l1.1,3.7
		l2.3,6.8H146.5z"/>
	<path class="st0" d="M177.9,47.8c-1,0.7-2.2,1.1-3.4,1.1c-1.3,0-2.5-0.3-3.6-1c-1-0.7-1.8-1.7-2.2-2.8c-0.5-1.5-0.8-3-0.7-4.6
		c0-1.6,0.2-3.1,0.8-4.6c0.5-1.1,1.3-2.1,2.3-2.8c1-0.6,2.2-1,3.5-1c1.2,0,2.3,0.3,3.3,0.9c1,0.8,1.6,1.9,1.9,3.1l4.6-1.9
		c-0.4-1.3-1.1-2.5-2.1-3.5c-1-0.9-2.1-1.7-3.4-2.1c-1.5-0.5-3-0.7-4.5-0.7c-2.1-0.1-4.3,0.5-6.1,1.5c-1.7,1-3.1,2.5-4,4.3
		c-1,2.1-1.5,4.4-1.4,6.7c-0.1,2.3,0.4,4.6,1.4,6.7c0.9,1.8,2.3,3.3,4,4.3c1.9,1,4,1.6,6.2,1.5c1.5,0,3.1-0.2,4.5-0.8
		c2.8-1,5-3.4,5.8-6.3l-4.7-1.4C179.6,45.8,178.9,46.9,177.9,47.8z"/>
	<polygon class="st0" points="200.1,38.3 208.8,28.4 203,28.4 193,39.9 193,28.4 188,28.4 188,52.6 193,52.6 193,45.5 196.5,41.5 
		203.3,52.6 209.1,52.6 	"/>
	<path class="st0" d="M79.8,54l-5.2-5.2l-7.3-7.3l-0.3-0.3c-0.1-0.1-0.1-0.1-0.2-0.2l-6.3,6.3L42.7,65.3L24.8,47.6l-1.5,1.5
		l17.9,17.6L29.7,78.3c-6.3,6.3-16.5,6.3-22.8,0c-6.3-6.3-6.3-16.5,0-22.8l0,0l0.2-0.1l2.8-2.5l-1.5-1.5L5.3,54
		c-7.1,7.2-7.1,18.7,0.1,25.9c7.2,7.1,18.7,7.1,25.9-0.1l35.7-35.7l11.4,11.4c6.3,6.3,6.3,16.5,0,22.8c-6.3,6.3-16.5,6.3-22.8,0l0,0
		l-2.7-2.7l-1.6,1.5l2.7,2.7c6.6,7.6,18.2,8.4,25.8,1.8c7.6-6.6,8.4-18.2,1.8-25.8C81,55.1,80.4,54.6,79.8,54z"/>
	<path class="st0" d="M79.8,5.4c-7.1-7.1-18.7-7.1-25.8,0c0,0,0,0,0,0l-7.9,7.9l-3.4,3.6l-7-6.9l0,0l-4.4-4.5
		c-7.1-7.1-18.7-7.2-25.8,0C2,8.8,0,13.5,0,18.3c0,4.8,1.9,9.5,5.3,12.9l5.1,5.1l7.6,7.6c0.1,0.1,0.1,0.1,0.2,0.2l24.2-24.2l18,17.7
		L61,38l1.5-1.5L62,36l-18-17.7L55.5,6.9c6.3-6.3,16.5-6.3,22.8,0c6.3,6.3,6.3,16.5,0,22.8l0,0l-3,3l1.5,1.5l3-3
		C86.9,24.1,86.9,12.5,79.8,5.4C79.8,5.4,79.8,5.4,79.8,5.4z M18.3,41L6.9,29.7C0.6,23.4,0.6,13.2,6.9,7s16.5-6.3,22.8,0L41,18.3
		L18.3,41z"/>
</g>
</svg>
