<?xml version="1.0" encoding="utf-8"?>
<!-- Generator: Adobe Illustrator 26.5.0, SVG Export Plug-In . SVG Version: 6.00 Build 0)  -->
<svg version="1.1" id="Layer_1" xmlns="http://www.w3.org/2000/svg" xmlns:xlink="http://www.w3.org/1999/xlink" x="0px" y="0px"
	 viewBox="0 0 161.5 121.2" style="enable-background:new 0 0 161.5 121.2;" xml:space="preserve">
<style type="text/css">
	.st0{fill:#F1F1F1;}
</style>
<g>
	<path class="st0" d="M53.6,34c0,0,19.4-20.5,47.3-20.5c26,0,47.1,21.1,47.1,47.1c0,26-21.1,47.1-47.1,47.1
		c-19.5,0-37.6-8.9-37.6-8.9s11.8,22.4,37.6,22.4c33.4,0,60.6-27.2,60.6-60.6c0-33.4-27.2-60.6-60.6-60.6C66.4,0,53.6,34,53.6,34z"
		/>
	<g>
		<path class="st0" d="M0,87.2h4c1.6,0,2.7,0.3,2.7,1.1c0,0.5-0.4,0.8-1.1,1c1,0.2,1.5,0.6,1.5,1.2c0,0.9-1.4,1.3-3,1.3H0V87.2z
			 M1.9,89h1.9c0.6,0,1.1-0.2,1.1-0.6c0-0.4-0.6-0.5-1.3-0.5H1.9V89z M1.9,91h2c0.7,0,1.4-0.1,1.4-0.6c0-0.5-0.5-0.7-1.3-0.7h-2V91z
			"/>
		<path class="st0" d="M8.3,87.2h6.3V88h-4.4v1h4.1v0.8h-4.1v1.1h4.5v0.9H8.3V87.2z"/>
		<path class="st0" d="M18.3,87.2h1.9l3.1,4.6h-1.9l-0.6-1h-3.1l-0.7,1h-1.9L18.3,87.2z M18.1,90h2.2l-1.1-1.7h0L18.1,90z"/>
		<path class="st0" d="M24,87.2h4.5c1.5,0,2.5,0.6,2.5,1.3c0,0.5-0.4,0.9-1.3,1.2v0c0.9,0.1,1.2,0.6,1.2,1.1c0,0.3,0,0.8,0.4,1.1
			h-1.9c-0.2-0.3-0.2-0.7-0.3-1.1C29,90.2,28.7,90,27.7,90h-1.8v1.8H24V87.2z M25.9,89.2h2c0.8,0,1.3-0.2,1.3-0.7
			c0-0.4-0.4-0.6-1.3-0.6h-2V89.2z"/>
		<path class="st0" d="M32.5,87.2h1.8v4.6h-1.8V87.2z"/>
		<path class="st0" d="M36,87.2h1.8l3.5,3.1h0v-3.1h1.7v4.6h-1.8l-3.5-3.1h0v3.1H36V87.2z"/>
		<path class="st0" d="M50.8,91.2c-0.6,0.5-1.5,0.6-2.3,0.6c-2.6,0-4.1-1.1-4.1-2.4c0-1.4,1.5-2.4,4.1-2.4c1.7,0,3.3,0.6,3.5,1.6
			h-1.8c-0.2-0.5-0.9-0.8-1.8-0.8c-1.7,0-2.3,0.8-2.3,1.6c0,0.8,0.6,1.5,2.3,1.5c1.2,0,1.9-0.4,2-1h-1.9v-0.8h3.5v2.5H51L50.8,91.2z
			"/>
		<path class="st0" d="M56.9,87.2h1.8v4.6h-1.8V87.2z"/>
		<path class="st0" d="M60.4,87.2h1.8l3.5,3.1h0v-3.1h1.7v4.6h-1.8l-3.5-3.1h0v3.1h-1.7V87.2z"/>
		<path class="st0" d="M69.1,87.2h3.6c2.2,0,3.8,0.8,3.8,2.3c0,1.3-1.2,2.3-3.8,2.3h-3.6V87.2z M71,90.9h1.6c1.1,0,2.1-0.4,2.1-1.4
			c0-0.9-0.6-1.5-2.4-1.5H71V90.9z"/>
		<path class="st0" d="M85,90c0,1.2-1.3,1.9-3.6,1.9c-2.3,0-3.6-0.6-3.6-1.9v-2.9h1.8V90c0,0.5,0.2,1,1.7,1c1.3,0,1.7-0.3,1.7-1
			v-2.9H85V90z"/>
		<path class="st0" d="M87.9,90.2c0,0.6,0.9,0.9,1.9,0.9c0.6,0,1.6-0.1,1.6-0.6c0-0.5-1.3-0.6-2.5-0.8c-1.2-0.2-2.5-0.4-2.5-1.3
			c0-0.9,1.6-1.4,3.1-1.4c1.8,0,3.4,0.4,3.4,1.5h-1.8c-0.1-0.6-0.8-0.7-1.7-0.7c-0.6,0-1.3,0.1-1.3,0.5c0,0.4,0.4,0.4,2.5,0.7
			c0.6,0.1,2.5,0.3,2.5,1.3c0,0.8-1.2,1.5-3.5,1.5c-1.9,0-3.6-0.5-3.6-1.6H87.9z"/>
		<path class="st0" d="M96.1,88h-2.5v-0.9h6.9V88H98v3.8h-1.8V88z"/>
		<path class="st0" d="M101.4,87.2h4.5c1.5,0,2.5,0.6,2.5,1.3c0,0.5-0.4,0.9-1.3,1.2v0c0.9,0.1,1.2,0.6,1.2,1.1c0,0.3,0,0.8,0.4,1.1
			h-1.8c-0.2-0.3-0.2-0.7-0.3-1.1c-0.1-0.5-0.5-0.7-1.4-0.7h-1.8v1.8h-1.8V87.2z M103.3,89.2h2c0.8,0,1.3-0.2,1.3-0.7
			c0-0.4-0.4-0.6-1.3-0.6h-2V89.2z"/>
		<path class="st0" d="M109.9,87.2h1.8v4.6h-1.8V87.2z"/>
		<path class="st0" d="M113.4,87.2h6.3V88h-4.4v1h4.1v0.8h-4.1v1.1h4.5v0.9h-6.4V87.2z"/>
		<path class="st0" d="M122.3,90.2c0,0.6,0.9,0.9,1.9,0.9c0.6,0,1.6-0.1,1.6-0.6c0-0.5-1.3-0.6-2.5-0.8c-1.2-0.2-2.5-0.4-2.5-1.3
			c0-0.9,1.6-1.4,3.1-1.4c1.8,0,3.4,0.4,3.4,1.5h-1.8c-0.1-0.6-0.8-0.7-1.7-0.7c-0.6,0-1.3,0.1-1.3,0.5c0,0.4,0.4,0.4,2.5,0.7
			c0.6,0.1,2.5,0.3,2.5,1.3c0,0.8-1.2,1.5-3.5,1.5c-1.9,0-3.6-0.5-3.6-1.6H122.3z"/>
		<polygon class="st0" points="44.4,40.2 58.3,40.2 58.3,53.1 68.2,40.2 85.2,40.2 85.2,51.1 76,51.1 70.9,56.8 81.2,71.1 
			85.2,71.1 85.2,81.1 70.8,81.1 61.4,66.7 58.3,69.7 58.3,81.1 44.4,81.1 44.4,71.1 45.9,71.1 45.9,51.1 44.4,51.1 		"/>
		<path class="st0" d="M40.3,75.1c-0.1-1.7-0.2-3.8-0.4-5.1c-0.2-1.3-0.5-2.6-1.6-4.5c-1.2-1.8-3.5-3.2-3.5-3.2s4.8-3.1,5.2-7.1
			c0.6-5.2-1.3-8.7-1.3-8.7C36,40.3,29,40.2,29,40.2H0v10.9h1.4v20H0v9.9h14.3V67.5c0,0,6.6,0,7.6,0c1,0,1.7,0.2,2.4,1.1
			c0.7,0.9,1.4,1.9,1.7,4c0.3,2.1,0.3,3.8,0.5,5.4c0.2,1.5,0.9,3.1,0.9,3.1h14.1C40.9,79.6,40.3,75.1,40.3,75.1z M23.2,57.5h-8.9
			v-6.4h8.9V57.5z"/>
		<path class="st0" d="M127.1,64.4c-1.7-4.8-4.2-5.9-4.2-5.9c0.8-0.8,2.4-3.1,2.7-4.5c0.3-1.5,1.2-4.8-1.6-9.3
			c-2.8-4.5-8.1-4.4-8.1-4.4H89.3v10.9h1.4v20h-1.4v10.1h25.8c2.6,0,4.7-0.3,7-1.5c2.3-1.2,3.8-3.5,4.5-5.1
			C127.4,73,128.8,69.1,127.1,64.4z M103.5,51.1h7.6v4.4h-7.6V51.1z M112.3,70.4h-8.8v-5.5h8.8V70.4z"/>
	</g>
	<path class="st0" d="M34.9,62.4"/>
</g>
</svg>
