<?xml version="1.0" encoding="utf-8"?>
<!-- Generator: Adobe Illustrator 26.5.0, SVG Export Plug-In . SVG Version: 6.00 Build 0)  -->
<svg version="1.1" id="Layer_1" xmlns="http://www.w3.org/2000/svg" xmlns:xlink="http://www.w3.org/1999/xlink" x="0px" y="0px"
	 viewBox="0 0 247 124.6" style="enable-background:new 0 0 247 124.6;" xml:space="preserve">
<style type="text/css">
	.st0{fill:#F1F1F1;}
</style>
<g>
	<path class="st0" d="M136.2,11c3,0.1,5.6-2.2,5.7-5.3c0.1-3-2.2-5.6-5.3-5.7c-3-0.1-5.6,2.2-5.7,5.3C130.9,8.3,133.2,10.9,136.2,11
		z"/>
	<path class="st0" d="M209.5,0.1c-14.7,0.1-26.6,12-26.5,26.7c0,1.1,0.1,2.2,0.2,3.3c-3.4,1.5-6.7,3.1-10,4.8
		c-3,1.5-5.9,3.2-8.8,4.9c-2.9,1.7-5.8,3.5-8.6,5.4c-5.6,3.8-11,7.9-16,12.4c-5,4.5-9.7,9.3-14,14.5c-2.1,2.6-4.1,5.3-6,8.1
		c-1.9,2.8-3.6,5.6-5.1,8.6c0,0,0,0,0,0.1c-1.2-0.4-2.5-0.7-3.8-0.9c-0.6-5.4-1.4-10.7-2.6-16c-1.4-6-3.2-11.8-5.6-17.4
		c-1-2.3-2.2-4.6-3.5-6.8c1.7-1.2,2.8-3.1,2.9-5.3c0.2-3.7-2.7-6.9-6.5-7c-3.7-0.2-6.9,2.7-7,6.5c-0.2,3.7,2.7,6.9,6.5,7
		c1.2,0.1,2.3-0.2,3.3-0.7c1.1,2.3,2.1,4.6,2.9,6.9c1.9,5.6,3.2,11.5,4,17.4c0.7,5.1,1.1,10.2,1.2,15.4c-1.4,0.2-2.8,0.5-4.1,1
		c-1.1-1.9-2.4-3.7-3.7-5.4c-3.2-4.1-6.9-7.7-11.1-10.8c-4.2-3.1-8.7-5.7-13.5-7.8c-2.4-1.1-4.8-2-7.3-2.8c-2.5-0.8-5-1.6-7.5-2.2
		c-2.5-0.6-5.1-1.2-7.6-1.6c-1.3-0.2-2.6-0.4-3.9-0.6c-1.3-0.2-2.6-0.4-3.9-0.5c-1-0.1-2.1-0.2-3.1-0.3c-0.3-0.6-0.6-1.3-0.9-1.9
		c-0.5-0.8-1-1.6-1.6-2.2c0,0,0,0,0,0c-0.1-0.1-0.2-0.3-0.3-0.4c-0.1-0.1-0.2-0.2-0.3-0.3c0,0-0.1-0.1-0.1-0.1
		c-0.1-0.1-0.2-0.2-0.3-0.3c-0.1-0.1-0.2-0.2-0.3-0.3c-0.1-0.1-0.2-0.1-0.2-0.2c-1.1-1-2.3-1.8-3.5-2.4c0,0-0.1,0-0.1,0
		c-0.2-0.1-0.3-0.2-0.5-0.2c-0.1,0-0.1-0.1-0.2-0.1c-0.1-0.1-0.3-0.1-0.4-0.2c-0.1,0-0.2-0.1-0.3-0.1c-0.1,0-0.2-0.1-0.3-0.1
		c-0.1,0-0.3-0.1-0.4-0.1c-0.1,0-0.1,0-0.2,0c-0.2-0.1-0.4-0.1-0.6-0.2c0,0,0,0-0.1,0c-1.4-0.3-2.8-0.5-4.3-0.4c-0.1,0-0.3,0-0.4,0
		c-0.1,0-0.2,0-0.3,0c-1.3,0.1-2.5,0.4-3.7,0.8c0,0-0.1,0-0.1,0c-0.2,0.1-0.4,0.1-0.6,0.2c-0.1,0-0.2,0.1-0.3,0.1
		c-0.1,0.1-0.3,0.1-0.4,0.2c-0.1,0.1-0.3,0.1-0.4,0.2c-0.1,0-0.2,0.1-0.2,0.1c-0.2,0.1-0.4,0.2-0.5,0.3c0,0-0.1,0-0.1,0.1
		c-0.7,0.4-1.4,0.9-2,1.4c-2.4,2-4.2,4.6-5.1,7.8c-1.1,3.9-0.6,8.1,1.5,11.6c2,3.5,5.3,6.1,9.2,7.2c1.3,0.4,2.7,0.5,4,0.5h0
		c6.9,0,12.9-4.6,14.7-11.3c0.2-0.7,0.3-1.4,0.4-2c0.6,0,1.2,0,1.7,0c2.5,0,4.9,0.1,7.4,0.2c2.5,0.2,4.9,0.4,7.3,0.7
		c2.4,0.3,4.9,0.8,7.3,1.3c2.4,0.6,4.8,1.2,7.1,2c4.7,1.6,9.2,3.7,13.3,6.3c4.2,2.6,8,5.8,11.4,9.5c1.4,1.5,2.7,3.1,3.9,4.8
		c-6.2,2.7-10.7,8.8-11,16.1c-0.2,4.9,1.5,9.6,4.8,13.3c3.3,3.6,7.9,5.7,12.8,5.9c0.3,0,0.5,0,0.8,0c9.9,0,18-7.8,18.4-17.7
		c0.2-4.9-1.5-9.6-4.8-13.3c-1.8-1.9-3.9-3.5-6.3-4.5c1.7-2.7,3.6-5.4,5.7-7.9c2.1-2.6,4.2-5,6.5-7.3c4.6-4.7,9.6-8.9,14.8-12.7
		c5.3-3.8,10.8-7.3,16.4-10.4c8.5-4.7,17.4-8.8,26.4-12.4c4.4,8.8,13.5,14.9,24,14.8c14.7-0.1,26.6-12,26.5-26.7
		C236.1,11.9,224.2,0,209.5,0.1z M105.5,112.1v-12h3.1v9.4h3.7v2.6H105.5z"/>
	<path class="st0" d="M172.6,64c-6.2-0.3-11.4,4.5-11.7,10.7c-0.1,3,0.9,5.8,2.9,8.1c2,2.2,4.8,3.5,7.8,3.6c0.2,0,0.3,0,0.5,0
		c6,0,10.9-4.7,11.2-10.7C183.6,69.5,178.8,64.2,172.6,64z"/>
	<path class="st0" d="M5.9,104.8l-0.8-0.2c-0.5-0.2-1.4-0.4-1.4-1.1c0-0.7,0.8-1,1.3-1c0.8,0,1.5,0.3,2.1,0.8l1.2-2.4
		c-1.1-0.6-2.5-1-3.8-1c-2.4,0-4.1,1.6-4.1,4c0,2.3,1.3,2.8,3.3,3.4c0.7,0.2,1.9,0.5,1.9,1.4c0,0.8-0.8,1.2-1.5,1.2
		c-1.1,0-2-0.6-2.8-1.2L0,111.1c1.2,0.9,2.7,1.4,4.2,1.4c1.2,0,2.5-0.3,3.4-1.1c1-0.8,1.2-2,1.2-3.2C8.9,106.1,7.6,105.3,5.9,104.8z
		"/>
	<polygon class="st0" points="45.1,100.1 41.2,100.1 37.4,105 37.4,105 37.4,100.1 34.3,100.1 34.3,112.1 37.4,112.1 37.4,106.9 
		37.4,106.9 41.4,112.1 45.5,112.1 40.3,105.8 	"/>
	<polygon class="st0" points="74.9,103.4 72.7,100.1 68.9,100.1 73.4,106.3 73.4,112.1 76.5,112.1 76.5,106.3 80.9,100.1 
		77.2,100.1 	"/>
	<path class="st0" d="M140.9,100.1l-4.6,12h3.3l0.8-2.1h4.3l0.8,2.1h3.3l-4.5-12H140.9z M141.2,107.6l1.3-3.8h0l1.3,3.8H141.2z"/>
	<path class="st0" d="M180.4,105.7L180.4,105.7c1-0.5,1.3-1.4,1.3-2.5c0-2.3-1.4-3.1-3.6-3.1h-4.5v12h4.8c2.2,0,4.3-0.8,4.3-3.3
		C182.8,107.1,182.1,105.9,180.4,105.7z M176.8,102.5h0.2c0.8,0,1.8,0.1,1.8,1.2c0,1-0.9,1.2-1.7,1.2h-0.4V102.5z M177.2,109.7h-0.4
		v-2.6h0.3c1,0,2.6-0.1,2.6,1.3C179.7,109.8,178.1,109.7,177.2,109.7z"/>
	<polygon class="st0" points="211.5,100.1 208.4,100.1 208.4,112.1 215.2,112.1 215.2,109.5 211.5,109.5 	"/>
	<polygon class="st0" points="247,102.7 247,100.1 240.1,100.1 240.1,112.1 247,112.1 247,109.5 243.3,109.5 243.3,107.4 
		246.8,107.4 246.8,104.7 243.3,104.7 243.3,102.7 	"/>
</g>
</svg>
