<?xml version="1.0" encoding="utf-8"?>
<!-- Generator: Adobe Illustrator 26.5.0, SVG Export Plug-In . SVG Version: 6.00 Build 0)  -->
<svg version="1.1" id="Layer_1" xmlns="http://www.w3.org/2000/svg" xmlns:xlink="http://www.w3.org/1999/xlink" x="0px" y="0px"
	 viewBox="0 0 343.4 83.8" style="enable-background:new 0 0 343.4 83.8;" xml:space="preserve">
<style type="text/css">
	.st0{fill:#F1F1F1;}
</style>
<g>
	<path class="st0" d="M41.8,83.8c-5.5,0-10.9-1-16-3.2c-5.1-2-9.7-5.3-13.5-9.1C8.5,67.7,5.3,63,3.2,58S0,47.5,0,41.8
		c0-5.5,1-10.9,3.2-16.2c2-5.1,5.3-9.7,9.1-13.5S20.8,5.1,25.9,3s10.5-3,16-3s10.9,1,16,3.2c5.1,2,9.7,5.3,13.5,9.1
		c3.8,3.8,7.1,8.5,9.1,13.5c2,5.1,3.2,10.5,3.2,16.2c0,5.5-1,10.9-3.2,16.2c-2,5.1-5.3,9.7-9.1,13.5c-3.8,3.8-8.5,7.1-13.5,9.1
		S47.3,83.8,41.8,83.8z M41.8,5.3c-9.7,0-19,3.8-25.9,10.7S5.3,32.1,5.3,41.8s3.8,19,10.7,25.9s16.2,10.7,25.9,10.7
		s19-3.8,25.9-10.7s10.7-16.2,10.7-25.9s-3.8-19-10.7-25.9C60.8,9.3,51.5,5.3,41.8,5.3L41.8,5.3z"/>
	<path class="st0" d="M41.8,73.1c-4,0-8.1-0.8-11.9-2.4c-3.8-1.6-7.1-3.8-10.1-6.7c-2.8-2.8-5.3-6.3-6.7-10.1
		c-1.6-3.8-2.4-7.9-2.4-11.9s0.8-8.1,2.4-11.9S17,22.8,19.8,20s6.3-5.3,10.1-6.7s7.9-2.4,11.9-2.4s8.1,0.8,11.9,2.4
		s7.1,3.8,10.1,6.7c2.8,2.8,5.3,6.3,6.7,10.1c1.6,3.8,2.4,7.9,2.4,11.9s-0.8,8.1-2.4,11.9s-3.8,7.3-6.7,10.1
		c-2.8,2.8-6.3,5.3-10.1,6.7C49.9,72.3,45.9,73.1,41.8,73.1L41.8,73.1z M41.8,14.7c-7.1,0-14.1,2.8-19.2,7.9s-7.9,11.9-7.9,19.2
		S17.6,56,22.6,61s11.9,7.9,19.2,7.9c7.1,0,14.1-2.8,19.2-7.9s7.9-11.9,7.9-19.2S66.1,27.7,61,22.6C55.8,17.6,48.9,14.7,41.8,14.7
		L41.8,14.7z"/>
	<path class="st0" d="M41.8,62.2c-5.3,0-10.5-2.2-14.1-5.9c-3.8-3.8-5.9-8.9-5.9-14.3s2.2-10.5,5.9-14.3s8.9-5.9,14.1-5.9
		S52.3,24,56,27.7c3.8,3.8,5.9,8.9,5.9,14.3S59.6,52.5,56,56.4C52.3,60,47.1,62.2,41.8,62.2L41.8,62.2z M41.8,24.2
		c-4.6,0-9.1,1.8-12.5,5.3c-3.2,3.2-5.1,7.9-5.3,12.5c0,4.6,1.8,9.1,5.3,12.5c3.2,3.2,7.7,5.3,12.5,5.3c4.6,0,9.1-1.8,12.5-5.3
		c3.2-3.2,5.3-7.9,5.3-12.5c0-4.6-1.8-9.1-5.3-12.5C50.9,26.3,46.5,24.2,41.8,24.2L41.8,24.2z"/>
	<path class="st0" d="M41.8,50.7c-2.2,0-4.4-1-6.1-2.6c-1.6-1.6-2.6-3.8-2.6-6.1c0-2.2,1-4.4,2.6-6.1c1.6-1.6,3.8-2.6,6.1-2.6
		c2.2,0,4.4,1,6.1,2.6c1.6,1.6,2.6,3.8,2.6,6.1c0,2.2-1,4.4-2.6,6.1C46.3,49.7,44,50.7,41.8,50.7L41.8,50.7z M41.8,37
		c-1.4,0-2.6,0.6-3.6,1.4c-1,1-1.4,2.2-1.4,3.6c0,1.4,0.6,2.6,1.4,3.6c1,1,2.2,1.4,3.6,1.4s2.6-0.6,3.6-1.4c1-1,1.4-2.2,1.4-3.6
		s-0.6-2.6-1.4-3.6C44.4,37.4,43,37,41.8,37L41.8,37z"/>
	<g>
		<path class="st0" d="M163.4,40.6c0-3,0.4-6.3,1.4-9.1c0.8-2.4,2.2-4.8,3.8-6.7c1.6-1.8,3.4-3.2,5.5-4c2-0.8,4.2-1.4,6.5-1.4
			c1,0,2,0,3,0.2c0.8,0.2,1.8,0.4,2.6,0.8s1.6,0.6,2.4,1c0.6,0.4,1.4,0.8,2,1.2l0,0c0-0.6,0-1.2,0-2.2c0-1,0-2,0-3.2V1h9.5v46.9
			c0,2.6,0,4.8,0,6.7c0,1.8,0.2,3.4,0.2,5.1h-8.5l-0.4-4.2h-0.2c-0.6,0.8-1.2,1.4-2,2c-0.8,0.6-1.6,1.2-2.6,1.6c-1,0.4-2,0.8-3.2,1
			c-1.2,0.2-2.4,0.4-3.6,0.4c-2,0-4.2-0.4-6.1-1.2c-2-0.8-3.8-2-5.3-3.4c-1.6-1.6-2.8-3.6-3.6-6.3C163.8,47.1,163.4,44,163.4,40.6z
			 M182.2,52.7c0.8,0,1.8-0.2,2.6-0.4s1.6-0.6,2.4-1c0.6-0.4,1.4-0.8,2-1.4c0.6-0.4,1-0.8,1.4-1.4V29.9c-1.2-1-2.4-1.6-3.8-2.2
			c-1.4-0.6-2.8-1-4.4-0.8c-1,0-2,0.2-3,0.6c-1.2,0.4-2.2,1.2-3,2c-1,1.2-1.8,2.6-2.2,4c-0.6,1.8-0.8,3.8-0.8,6.5
			c0,3.8,0.8,7.1,2.2,9.1C177.2,51.5,179.4,52.7,182.2,52.7L182.2,52.7z"/>
		<path class="st0" d="M234.5,27.9h-0.8c-2.6,0-5.3,0.4-7.7,1.2c-2,0.8-3.8,2.2-5.1,4v26.3h-9.5V20.2h7.9l0.8,5.5h0.2
			c1-2,2.6-3.6,4.6-4.6c2-1.2,4.2-1.8,7.1-1.6c0.8,0,1.6,0,2.4,0.2V27.9z"/>
		<path class="st0" d="M277.2,39.8c0,2.8-0.4,5.7-1.4,8.5c-0.8,2.4-2.2,4.6-3.8,6.5c-1.8,1.8-3.8,3.2-6.1,4.2
			c-2.6,1-5.3,1.4-8.1,1.4c-2.8,0-5.7-0.4-8.3-1.4c-2.4-1-4.4-2.4-6.3-4.2c-1.8-1.8-3-4-3.8-6.5c-1-2.6-1.4-5.5-1.4-8.5
			c0-2.8,0.4-5.7,1.4-8.5c0.8-2.4,2.2-4.6,3.8-6.5c1.8-1.8,3.8-3.2,6.3-4.2c2.6-1,5.3-1.4,8.1-1.4c2.8,0,5.7,0.4,8.3,1.4
			c2.4,1,4.4,2.4,6.1,4.2c1.8,1.8,3,4,3.8,6.5C276.7,34.1,277.4,37,277.2,39.8L277.2,39.8z M267.5,39.8c0-1.8-0.2-3.6-0.8-5.5
			c-0.4-1.4-1-2.8-2-4c-0.8-1-1.8-1.8-3-2.4c-1.2-0.6-2.6-0.8-3.8-0.8c-1.4,0-2.6,0.2-3.8,0.8c-1.2,0.6-2.2,1.4-3,2.4
			c-1,1.2-1.6,2.6-2,4c-0.6,1.8-0.8,3.6-0.8,5.5s0.2,3.6,0.8,5.5c0.4,1.4,1,2.8,2,4c0.8,1,1.8,1.8,3,2.4c1.2,0.6,2.6,0.8,3.8,0.8
			c1.4,0,2.6-0.2,3.8-0.8c1.2-0.6,2.2-1.4,3-2.4c1-1.2,1.6-2.6,2-4C267.3,43.4,267.5,41.6,267.5,39.8L267.5,39.8z"/>
		<path class="st0" d="M285.6,1h9.9v10.3h-9.9V1z M285.8,20.2h9.5v39h-9.5V20.2z"/>
		<path class="st0" d="M322.2,45.9l-10.1,13.5h-10.9l15.4-20L302,20.2h11.1l9.1,12.9l9.3-12.9h11.3l-14.9,19.2l15.4,20h-11.1
			L322.2,45.9z"/>
		<path class="st0" d="M149.9,44.6c3.4,0,6.1-2.8,6.1-6.1c0-3.4-2.6-6.1-6.1-6.1c-3.4,0-6.1,2.8-6.1,6.1
			C143.8,42,146.7,44.6,149.9,44.6z"/>
		<path class="st0" d="M135.5,39.2c0,3.4-0.6,6.7-1.6,9.3c-0.8,2.4-2.2,4.8-4,6.7c-1.6,1.6-3.4,3-5.5,3.8c-2,0.8-4,1.2-6.3,1.2
			c-1.4,0-2.6-0.2-4-0.6c-1-0.4-2.2-0.8-3-1.4c-0.8-0.4-1.6-1-2.2-1.6c-0.6-0.4-1-1-1.4-1.6h-0.2l-1,4.2h-7.9c0-1.2,0.2-2.6,0.2-4.2
			c0-1.6,0-3.2,0-4.8V1h9.5v16.2c0,1.2,0,2.2,0,3.2c0,1,0,1.8,0,2.2l0,0c0.6-0.4,1.2-0.8,2-1.2c0.8-0.4,1.6-0.8,2.4-1
			c0.8-0.4,1.8-0.6,2.8-0.8c1-0.2,2-0.2,3.2-0.2c2.2,0,4.2,0.4,6.3,1.2c2,0.8,3.8,2,5.5,3.6c1.6,1.8,3,3.8,3.8,6.3
			C135.1,32.9,135.5,35.8,135.5,39.2z M125.6,39.6c0-2.2-0.2-4.2-0.8-6.3c-0.6-1.8-1.4-3-2.2-4c-0.8-0.8-1.8-1.4-3-1.8
			c-1-0.4-2-0.4-3-0.4c-1.4,0-2.8,0.2-4.2,0.8c-1.4,0.6-2.8,1.2-3.8,2.2v18.8c0.4,0.4,0.8,1,1.4,1.4s1.2,1,1.8,1.2
			c0.6,0.4,1.4,0.8,2.2,1c0.8,0.2,1.6,0.4,2.6,0.4c1.4,0,2.8-0.2,4-1c1.2-0.6,2.2-1.6,3-2.6c0.8-1.2,1.4-2.6,1.8-4
			C125.6,43.2,125.8,41.4,125.6,39.6L125.6,39.6z"/>
	</g>
	<g>
		<path class="st0" d="M98.6,82.8v-16h4v16H98.6z"/>
		<path class="st0" d="M105.4,82.8V71.3h3.6v1.6l0,0c0.4-0.6,0.8-1,1.6-1.4c0.6-0.4,1.4-0.6,2-0.6c2.8,0,4.2,1.4,4.2,4.4v7.5h-3.8
			v-5.7c0-1.2,0-1.8-0.2-2.2c-0.2-0.6-0.8-1-1.6-1c-0.2,0-0.6,0-0.8,0.2c-0.2,0.2-0.4,0.4-0.6,0.6c-0.4,0.4-0.6,1-0.4,1.6v6.5H105.4
			z"/>
		<path class="st0" d="M119.4,82.8V71.3h3.6v1.6l0,0c0.4-0.6,0.8-1,1.6-1.4c0.6-0.4,1.4-0.6,2-0.6c2.8,0,4.2,1.4,4.2,4.4v7.5h-3.8
			v-5.7c0-1.2,0-1.8-0.2-2.2c-0.2-0.6-0.8-1-1.6-1c-0.2,0-0.6,0-0.8,0.2c-0.2,0.2-0.4,0.4-0.6,0.6c-0.4,0.4-0.6,1-0.4,1.6v6.5H119.4
			z"/>
		<path class="st0" d="M132.7,77c0-0.8,0.2-1.6,0.4-2.4c0.2-0.8,0.8-1.4,1.2-2c0.6-0.6,1.2-1,2-1.4c0.8-0.2,1.6-0.4,2.4-0.4
			c0.8,0,1.6,0.2,2.4,0.4c0.8,0.2,1.4,0.8,2,1.4c0.6,0.6,1,1.2,1.2,2c0.2,0.8,0.4,1.6,0.4,2.4c0,0.8-0.2,1.6-0.4,2.4
			c-0.2,0.8-0.8,1.4-1.2,2c-0.6,0.6-1.2,1-2,1.4c-0.8,0.2-1.6,0.4-2.4,0.4c-0.8,0-1.6-0.2-2.4-0.4c-0.8-0.2-1.4-0.8-2-1.4
			c-0.6-0.6-1-1.2-1.2-2C132.9,78.6,132.7,77.8,132.7,77L132.7,77z M136.6,77c0,0.8,0.2,1.4,0.4,2.2c0.2,0.4,0.4,0.6,0.8,0.8
			s0.6,0.2,1,0.2s0.8,0,1-0.2c0.4-0.2,0.6-0.4,0.8-0.8c0.4-0.6,0.6-1.4,0.4-2.2c0-0.8-0.2-1.4-0.4-2.2c-0.2-0.4-0.4-0.6-0.8-0.8
			c-0.4-0.2-0.6-0.2-1-0.2s-0.8,0-1,0.2c-0.4,0.2-0.6,0.4-0.8,0.8C136.8,75.6,136.6,76.4,136.6,77L136.6,77z"/>
		<path class="st0" d="M157.6,71.3l-3.8,11.5h-4.2l-3.8-11.5h3.8l2,7.7l0,0l2.2-7.7H157.6z"/>
		<path class="st0" d="M162.2,74.7h-3.4c0.2-2.6,2-3.8,5.5-3.8c1.6,0,2.8,0.2,3.6,0.8c1,0.6,1.6,1.6,1.6,3.2V80c0,1.4,0.2,2.4,0.4,3
			H166c-0.2-0.4-0.2-0.8-0.2-1c-0.8,1-2.2,1.4-3.8,1.4c-1,0-2-0.2-2.8-0.8c-0.4-0.4-0.6-0.8-0.8-1.2c-0.2-0.4-0.2-1-0.2-1.4
			c0-1.2,0.4-2,1.2-2.6c0.6-0.4,1.4-0.8,2.6-1l2.8-0.4c0.6-0.2,1-0.4,1-1c0-0.2,0-0.4-0.2-0.6c-0.2-0.2-0.2-0.2-0.4-0.4
			c-0.4-0.2-0.8-0.2-1.2-0.2C163,73.3,162.4,73.9,162.2,74.7z M162,79.6c0,0.8,0.6,1.2,1.6,1.2c0.8,0,1.4-0.2,1.8-0.8
			c0.4-0.6,0.4-1.4,0.4-2.6c-0.4,0.2-1,0.4-1.4,0.4c-0.6,0-1,0.2-1.6,0.4c-0.2,0.2-0.4,0.2-0.6,0.4C162,79,162,79.2,162,79.6
			L162,79.6z"/>
		<path class="st0" d="M179,71.3v2.4h-2.4V79c0,0.8,0.4,1.2,1.4,1.2c0.2,0,0.2,0,0.4,0c0.2,0,0.4,0,0.4,0v2.6c-0.2,0-0.6,0-1,0
			s-0.8,0-1,0c-1.6,0-2.6-0.2-3.2-0.8c-0.6-0.6-0.8-1.6-0.8-3.2v-5.1h-1.8v-2.4h1.8v-3.4h3.8v3.4H179z"/>
		<path class="st0" d="M184.4,66.9v2.8h-3.8v-2.8H184.4z M180.8,82.8V71.3h3.8v11.5H180.8z"/>
		<path class="st0" d="M186.7,77c0-0.8,0.2-1.6,0.4-2.4c0.2-0.8,0.8-1.4,1.2-2c0.6-0.6,1.2-1,2-1.4c0.8-0.2,1.6-0.4,2.4-0.4
			c0.8,0,1.6,0.2,2.4,0.4c0.8,0.2,1.4,0.8,2,1.4c0.6,0.6,1,1.2,1.2,2c0.2,0.8,0.4,1.6,0.4,2.4c0,0.8-0.2,1.6-0.4,2.4
			c-0.2,0.8-0.8,1.4-1.2,2c-0.6,0.6-1.2,1-2,1.4c-0.8,0.2-1.6,0.4-2.4,0.4c-0.8,0-1.6-0.2-2.4-0.4c-0.8-0.2-1.4-0.8-2-1.4
			c-0.6-0.6-1-1.2-1.2-2C186.7,78.6,186.7,77.8,186.7,77L186.7,77z M190.3,77c0,0.8,0.2,1.4,0.4,2.2c0.2,0.4,0.4,0.6,0.8,0.8
			c0.4,0.2,0.6,0.2,1,0.2s0.8,0,1-0.2c0.4-0.2,0.6-0.4,0.8-0.8c0.4-0.6,0.6-1.4,0.4-2.2c0-0.8-0.2-1.4-0.4-2.2
			c-0.2-0.4-0.4-0.6-0.8-0.8c-0.4-0.2-0.6-0.2-1-0.2s-0.8,0-1,0.2c-0.4,0.2-0.6,0.4-0.8,0.8C190.5,75.6,190.3,76.4,190.3,77
			L190.3,77z"/>
		<path class="st0" d="M200.6,82.8V71.3h3.6v1.6l0,0c0.4-0.6,0.8-1,1.6-1.4c0.6-0.4,1.4-0.6,2-0.6c2.8,0,4.2,1.4,4.2,4.4v7.5h-3.8
			v-5.7c0-1.2,0-1.8-0.2-2.2c-0.2-0.6-0.8-1-1.6-1c-0.2,0-0.6,0-0.8,0.2c-0.2,0.2-0.6,0.4-0.6,0.6c-0.4,0.4-0.6,1-0.4,1.6v6.5H200.6
			z"/>
		<path class="st0" d="M225.4,66.9v2.8h-3.8v-2.8H225.4z M221.8,82.8V71.3h3.8v11.5H221.8z"/>
		<path class="st0" d="M227.5,79h3.6c0,0.2,0,0.4,0.2,0.8c0.2,0.2,0.2,0.4,0.4,0.6c0.4,0.2,0.8,0.4,1.4,0.4c0.4,0,0.8,0,1.2-0.2
			c0.2,0,0.4-0.2,0.4-0.4c0.2-0.2,0.2-0.4,0.2-0.6s0-0.4-0.2-0.6c-0.2-0.2-0.2-0.2-0.4-0.4c-0.2,0-0.6-0.2-1.2-0.4
			c-0.8-0.2-1.6-0.4-2.4-0.6c-0.8-0.2-1.4-0.6-2-1c-0.2-0.2-0.6-0.6-0.6-1s-0.2-0.8-0.2-1.2c0-1.2,0.6-2.2,1.8-2.8
			c1-0.6,2.2-0.8,3.4-0.8c3.4,0,5.3,1.2,5.3,3.8h-3.4c0-0.8-0.6-1.2-1.6-1.2c-1,0-1.6,0.2-1.6,0.8c0,0.4,0.4,0.8,1.4,1.2
			c1,0.2,1.8,0.4,2.8,0.6c1,0.2,1.8,0.6,2.4,1.4c0.4,0.4,0.6,1,0.6,1.8c0,0.6-0.2,1.2-0.4,1.8c-0.4,0.6-0.8,1-1.4,1.4
			c-1,0.6-2.2,0.8-3.6,0.8c-1.6,0-2.8-0.2-3.8-0.8C228.3,81.6,227.7,80.4,227.5,79z"/>
		<path class="st0" d="M247.5,82.8v-16h3.8v5.7l0,0c0.4-0.6,0.8-1,1.4-1.2s1.2-0.4,1.8-0.4c0.8,0,1.4,0.2,2,0.4
			c0.6,0.4,1.2,0.8,1.6,1.4c0.8,1.2,1.2,2.6,1.2,4c0,1.8-0.4,3.2-1.2,4.4c-1,1.2-2.2,2-3.8,2c-0.6,0-1.2-0.2-1.8-0.4
			c-0.6-0.2-1-0.8-1.4-1.2l0,0v1.2H247.5z M253.5,73.7c-0.2,0-0.6,0-0.8,0.2c-0.2,0.2-0.4,0.2-0.6,0.4c-0.6,0.6-0.8,1.4-0.8,2.4
			c0,2.2,0.8,3.4,2.2,3.4c0.4,0,0.8,0,1-0.2c0.4-0.2,0.6-0.4,0.8-0.8c0.4-0.6,0.6-1.4,0.4-2.2c0-0.8-0.2-1.4-0.4-2
			c-0.2-0.4-0.4-0.6-0.8-0.8C254.1,73.9,253.7,73.7,253.5,73.7L253.5,73.7z"/>
		<path class="st0" d="M273.1,78h-8.5c0,0.6,0.2,1.4,0.8,1.8c0.2,0.2,0.6,0.4,0.8,0.6c0.4,0.2,0.6,0.2,1,0.2c1,0,1.8-0.4,2.2-1.2
			h3.4c-0.2,0.6-0.4,1.2-0.8,1.6c-0.4,0.4-0.8,1-1.4,1.2c-1,0.6-2.4,1-3.6,1c-1.8,0-3.4-0.6-4.4-1.6c-1.2-1-1.8-2.6-1.8-4.4
			c0-0.8,0.2-1.6,0.4-2.4c0.4-0.8,0.8-1.4,1.4-2s1.2-1,2-1.2s1.6-0.4,2.4-0.4c2,0,3.4,0.6,4.6,2C272.7,74.3,273.3,76,273.1,78z
			 M264.6,75.8h4.6c0-0.6-0.2-1.2-0.6-1.6c-0.2-0.2-0.4-0.4-0.6-0.6c-0.2-0.2-0.6-0.2-0.8-0.2s-0.6,0-0.8,0.2s-0.6,0.2-0.8,0.4
			C265,74.5,264.8,75.1,264.6,75.8L264.6,75.8z"/>
		<path class="st0" d="M278.4,74.7h-3.4c0.2-2.6,2-3.8,5.5-3.8c1.6,0,2.8,0.2,3.6,0.8c1,0.6,1.6,1.6,1.6,3.2V80c0,1.4,0.2,2.4,0.4,3
			h-3.8c-0.2-0.4-0.2-0.8-0.2-1c-0.8,1-2.2,1.4-3.8,1.4c-1,0-2-0.2-2.8-0.8c-0.4-0.4-0.6-0.8-0.8-1.2c-0.2-0.4-0.2-1-0.2-1.4
			c0-1.2,0.4-2,1.2-2.6c0.6-0.4,1.4-0.8,2.6-1L281,76c0.6-0.2,1-0.4,1-1c0-0.2,0-0.4-0.2-0.6c-0.2-0.2-0.2-0.2-0.4-0.4
			c-0.4-0.2-0.8-0.2-1.2-0.2C279.2,73.3,278.6,73.9,278.4,74.7z M278.2,79.6c0,0.8,0.6,1.2,1.6,1.2c0.8,0,1.4-0.2,1.8-0.8
			c0.4-0.6,0.4-1.4,0.4-2.6c-0.4,0.2-1,0.4-1.4,0.4c-0.6,0-1,0.2-1.6,0.4c-0.2,0.2-0.4,0.2-0.6,0.4C278.2,79,278.2,79.2,278.2,79.6
			L278.2,79.6z"/>
		<path class="st0" d="M299.6,71.3v11.5h-3.6v-1.6l0,0c-0.4,0.6-0.8,1-1.4,1.4c-0.6,0.4-1.2,0.6-2,0.6c-1.6,0-2.6-0.4-3.4-1.4
			c-0.6-0.8-0.8-2-0.8-3.6v-6.9h3.8V78c0,1.4,0.6,2,1.8,2c0.2,0,0.4,0,0.8-0.2c0.2,0,0.4-0.2,0.6-0.4c0.4-0.4,0.8-1.2,0.8-2v-6.3
			L299.6,71.3z"/>
		<path class="st0" d="M309.1,71.3v2.4h-2.4V79c0,0.8,0.4,1.2,1.4,1.2c0.2,0,0.2,0,0.4,0s0.4,0,0.4,0v2.6c-0.2,0-0.6,0-1,0
			c-0.4,0-0.8,0-1,0c-1.6,0-2.6-0.2-3.2-0.8c-0.6-0.6-0.8-1.6-0.8-3.2v-5.1H301v-2.4h1.8v-3.4h3.8v3.4H309.1z"/>
		<path class="st0" d="M314.7,66.9v2.8h-3.8v-2.8H314.7z M310.9,82.8V71.3h3.8v11.5H310.9z"/>
		<path class="st0" d="M318.2,82.8v-9.1h-1.8v-2.4h1.8c0-1.6,0.4-2.8,1-3.4s1.8-1,3.4-1h1.8v2.6c-0.4,0-0.6,0-1,0
			c-0.4,0-0.6,0-1,0.2c-0.2,0.2-0.4,0.4-0.4,1v0.6h2.2v2.4H322v9.1H318.2z"/>
		<path class="st0" d="M336.9,71.3v11.5h-3.6v-1.6l0,0c-0.4,0.6-0.8,1-1.4,1.4c-0.6,0.4-1.2,0.6-2,0.6c-1.6,0-2.6-0.4-3.4-1.4
			c-0.6-0.8-0.8-2-0.8-3.6v-6.9h3.8V78c0,1.4,0.6,2,1.8,2c0.2,0,0.4,0,0.8-0.2c0.2,0,0.4-0.2,0.6-0.4c0.4-0.4,0.8-1.2,0.8-2v-6.3
			L336.9,71.3z"/>
		<path class="st0" d="M339.6,82.8v-16h3.8v16H339.6z"/>
	</g>
</g>
</svg>
