<?xml version="1.0" encoding="utf-8"?>
<!-- Generator: Adobe Illustrator 26.5.0, SVG Export Plug-In . SVG Version: 6.00 Build 0)  -->
<svg version="1.1" id="Layer_1" xmlns="http://www.w3.org/2000/svg" xmlns:xlink="http://www.w3.org/1999/xlink" x="0px" y="0px"
	 viewBox="0 0 335.3 71" style="enable-background:new 0 0 335.3 71;" xml:space="preserve">
<style type="text/css">
	.st0{fill:#F1F1F1;}
</style>
<g>
	<g>
		<path class="st0" d="M84.4,49h7.2l2.5-5.1h8.5l2.5,5.1h7.3l-14-28.2L84.4,49z M101.3,39h-5.9l2.9-6.8L101.3,39z"/>
		<polygon class="st0" points="129.2,37.4 117.9,21.2 113.6,49 120.4,49 122,35.5 129.2,46.6 136.5,35.5 138.1,49 144.8,49 
			140.6,21.2 		"/>
		<path class="st0" d="M171.9,25.7c-1.3-1.2-2.8-2.2-4.5-2.9c-1.7-0.7-3.6-1-5.7-1c-2,0-3.9,0.3-5.7,1c-1.7,0.7-3.3,1.6-4.6,2.9
			c-1.3,1.2-2.3,2.7-3,4.4c-0.7,1.7-1.1,3.6-1.1,5.6c0,2,0.3,3.9,1,5.7c0.7,1.7,1.7,3.2,3,4.5c1.3,1.3,2.8,2.2,4.5,2.9
			c1.7,0.7,3.7,1,5.8,1c2.1,0,4-0.3,5.7-1c1.7-0.7,3.3-1.7,4.5-2.9c1.3-1.3,2.3-2.8,3-4.5c0.7-1.7,1-3.6,1-5.7c0-2-0.4-3.9-1.1-5.6
			C174.2,28.5,173.2,27,171.9,25.7z M168.3,39.9c-0.6,1.2-1.5,2.1-2.6,2.8c-1.1,0.7-2.4,1-3.9,1c-1.5,0-2.8-0.3-4-1
			c-1.1-0.7-2-1.6-2.6-2.8c-0.6-1.2-0.9-2.6-0.9-4.2c0-1.6,0.3-3,0.9-4.2c0.6-1.2,1.5-2.1,2.6-2.8c1.1-0.7,2.4-1,4-1
			c1.5,0,2.9,0.3,4,1c1.1,0.7,2,1.6,2.6,2.8c0.6,1.2,0.9,2.6,0.9,4.2C169.2,37.3,168.9,38.7,168.3,39.9z"/>
		<path class="st0" d="M195.5,38.7c1.5-0.7,2.7-1.8,3.5-3.1c0.8-1.3,1.2-2.8,1.2-4.5c0-1.7-0.4-3.2-1.2-4.5
			c-0.8-1.3-1.9-2.3-3.5-3.1c-1.5-0.7-3.4-1.1-5.7-1.1h-3.3h-2.4h-4V49h6.4v-9.2h1.9l5.7,9.2h7.5l-6.9-10
			C195,38.9,195.2,38.8,195.5,38.7z M186.5,27.9h2.8c0.9,0,1.6,0.1,2.2,0.4c0.6,0.3,1.1,0.7,1.4,1.2c0.3,0.5,0.5,1.1,0.5,1.9
			c0,0.7-0.2,1.4-0.5,1.9c-0.3,0.5-0.8,0.9-1.4,1.2c-0.6,0.3-1.4,0.4-2.2,0.4h-2.8V27.9z"/>
		<path class="st0" d="M219.5,23.5c-1.5-0.7-3.4-1-5.7-1H211h-2.4h-4V49h6.4v-9.2h2.8c2.3,0,4.1-0.3,5.7-1c1.5-0.7,2.7-1.7,3.5-3
			c0.8-1.3,1.2-2.8,1.2-4.6c0-1.8-0.4-3.4-1.2-4.7C222.2,25.2,221.1,24.2,219.5,23.5z M216.9,33.7c-0.7,0.6-1.7,0.9-3,0.9H211v-6.8
			h2.8c1.3,0,2.3,0.3,3,0.9c0.7,0.6,1.1,1.4,1.1,2.5C218,32.3,217.6,33.1,216.9,33.7z"/>
		<polygon class="st0" points="246.1,32.2 234.7,32.2 234.7,22.5 228.3,22.5 228.3,49 234.7,49 234.7,37.9 246.1,37.9 246.1,49 
			252.5,49 252.5,22.5 246.1,22.5 		"/>
		<path class="st0" d="M281.1,25.7c-1.3-1.2-2.8-2.2-4.5-2.9c-1.7-0.7-3.6-1-5.7-1c-2,0-3.9,0.3-5.7,1c-1.7,0.7-3.3,1.6-4.6,2.9
			c-1.3,1.2-2.3,2.7-3,4.4c-0.7,1.7-1.1,3.6-1.1,5.6c0,2,0.3,3.9,1,5.7c0.7,1.7,1.7,3.2,3,4.5c1.3,1.3,2.8,2.2,4.5,2.9
			c1.7,0.7,3.7,1,5.8,1c2.1,0,4-0.3,5.7-1c1.7-0.7,3.3-1.7,4.5-2.9c1.3-1.3,2.3-2.8,3-4.5c0.7-1.7,1-3.6,1-5.7c0-2-0.4-3.9-1.1-5.6
			C283.4,28.5,282.4,27,281.1,25.7z M277.4,39.9c-0.6,1.2-1.5,2.1-2.6,2.8c-1.1,0.7-2.4,1-3.9,1c-1.5,0-2.8-0.3-4-1
			c-1.1-0.7-2-1.6-2.6-2.8c-0.6-1.2-0.9-2.6-0.9-4.2c0-1.6,0.3-3,0.9-4.2c0.6-1.2,1.5-2.1,2.6-2.8c1.1-0.7,2.4-1,4-1
			c1.5,0,2.9,0.3,4,1c1.1,0.7,2,1.6,2.6,2.8c0.6,1.2,0.9,2.6,0.9,4.2C278.3,37.3,278,38.7,277.4,39.9z"/>
		<path class="st0" d="M304,39.9c0,1.3-0.4,2.4-1.1,3.3c-0.7,0.8-1.8,1.3-3.2,1.3c-1.4,0-2.5-0.4-3.2-1.3c-0.7-0.8-1.1-1.9-1.1-3.3
			V22.5H289v17.8c0,1.7,0.3,3.1,0.8,4.4c0.5,1.2,1.3,2.3,2.3,3.1c1,0.8,2.1,1.4,3.4,1.8c1.3,0.4,2.7,0.6,4.2,0.6
			c1.5,0,2.9-0.2,4.2-0.6c1.3-0.4,2.4-1,3.4-1.8c1-0.8,1.7-1.8,2.3-3.1c0.5-1.2,0.8-2.7,0.8-4.4V22.5H304V39.9z"/>
		<path class="st0" d="M334.7,38.5c-0.4-0.9-0.8-1.6-1.5-2.3c-0.6-0.7-1.3-1.2-2.1-1.7c-0.8-0.5-1.7-0.9-2.6-1.2
			c-1.2-0.4-2.3-0.8-3.2-1.2c-0.9-0.4-1.5-0.8-2-1.3c-0.5-0.5-0.7-1-0.7-1.6c0-0.6,0.2-1.1,0.7-1.5c0.5-0.4,1.2-0.6,2.1-0.6
			c0.7,0,1.3,0.1,1.9,0.4c0.6,0.3,1.1,0.6,1.6,1.1c0.5,0.5,0.9,1,1.3,1.7l4.9-2.7c-0.5-0.9-1.1-1.8-2-2.7c-0.9-0.9-1.9-1.6-3.2-2.2
			c-1.3-0.6-2.8-0.9-4.6-0.9c-1.7,0-3.3,0.3-4.7,0.9c-1.4,0.6-2.5,1.5-3.3,2.6c-0.8,1.1-1.2,2.5-1.2,4.1c0,1.3,0.2,2.4,0.7,3.4
			c0.5,0.9,1.1,1.7,1.8,2.4c0.7,0.6,1.5,1.2,2.3,1.6c0.8,0.4,1.5,0.7,2.2,0.9c1.3,0.5,2.3,0.9,3.1,1.3c0.8,0.4,1.4,0.8,1.7,1.2
			c0.4,0.4,0.5,1,0.5,1.7c0,0.8-0.3,1.4-0.9,1.9c-0.6,0.5-1.4,0.7-2.3,0.7c-0.9,0-1.7-0.2-2.5-0.6c-0.8-0.4-1.5-0.9-2.2-1.6
			c-0.7-0.7-1.3-1.5-1.8-2.5l-4.5,3.2c0.6,1.3,1.5,2.4,2.5,3.5c1.1,1.1,2.4,1.9,3.9,2.5c1.5,0.6,3.1,0.9,4.8,0.9
			c1.2,0,2.4-0.2,3.6-0.5c1.2-0.4,2.2-0.9,3.1-1.6c0.9-0.7,1.7-1.6,2.2-2.6c0.5-1,0.8-2.2,0.8-3.6C335.3,40.4,335.1,39.4,334.7,38.5
			z"/>
	</g>
	<g>
		<polygon class="st0" points="49.6,47 59.8,71 74.8,71 57.2,29 		"/>
		<polygon class="st0" points="0,71 15,71 25.2,47 37.5,71 49.6,47 29.9,0 		"/>
	</g>
</g>
</svg>
