<?xml version="1.0" encoding="UTF-8"?>
<!DOCTYPE svg PUBLIC "-//W3C//DTD SVG 1.1//EN" "http://www.w3.org/Graphics/SVG/1.1/DTD/svg11.dtd">
<!-- Creator: CorelDRAW 2018 (64-Bit) -->
<svg xmlns="http://www.w3.org/2000/svg" xml:space="preserve" width="1417px" height="291px" version="1.1" style="shape-rendering:geometricPrecision; text-rendering:geometricPrecision; image-rendering:optimizeQuality; fill-rule:evenodd; clip-rule:evenodd"
viewBox="0 0 1578.29 323.84"
 xmlns:xlink="http://www.w3.org/1999/xlink">
 <defs>
  <style type="text/css">
   <![CDATA[
    .fil0 {fill:#E6E6E6}
    .fil1 {fill:#E6E6E6;fill-rule:nonzero}
    .fil3 {fill:white;fill-rule:nonzero}
    .fil2 {fill:url(#id0);fill-rule:nonzero}
   ]]>
  </style>
  <radialGradient id="id0" gradientUnits="userSpaceOnUse" gradientTransform="matrix(1.22111 -1.39154 1.39922 1.22785 -224 357)" cx="275.37" cy="116.58" r="179.08" fx="275.37" fy="116.58">
   <stop offset="0" style="stop-opacity:1; stop-color:white"/>
   <stop offset="1" style="stop-opacity:1; stop-color:#E6E6E6"/>
  </radialGradient>
 </defs>
 <g id="Warstwa_x0020_1">
  <metadata id="CorelCorpID_0Corel-Layer"/>
  <path class="fil0" d="M516.7 106.71c-6.54,0 -12.06,0.86 -16.55,2.58 -4.21,1.62 -7.59,4.03 -10.16,7.23 -5.54,6.91 -8.32,16.65 -8.32,29.18 0,3.24 0.18,6.21 0.53,8.92 0.35,2.75 0.89,5.36 1.6,7.82 1.38,4.76 3.42,8.83 6.09,12.17 1.28,1.6 2.74,3.04 4.38,4.31 1.64,1.27 3.45,2.36 5.4,3.25 1.93,0.89 4.08,1.56 6.44,2.02 2.39,0.48 5,0.71 7.81,0.71l4.68 -0.03 4.75 -0.2 0 -48.6 42.68 0 0 77.93 -3.73 1.46c-3.97,1.56 -10.25,3.21 -18.85,4.94 -8.66,1.75 -19.17,2.62 -31.51,2.62 -5.45,0 -10.69,-0.43 -15.73,-1.28 -5.05,-0.86 -9.86,-2.15 -14.42,-3.87 -4.6,-1.74 -8.86,-3.88 -12.78,-6.41 -3.95,-2.54 -7.57,-5.5 -10.86,-8.86 -3.32,-3.4 -6.24,-7.13 -8.74,-11.2 -2.48,-4.03 -4.61,-8.48 -6.38,-13.33 -1.74,-4.77 -3.05,-9.88 -3.93,-15.32 -0.87,-5.44 -1.3,-11.13 -1.3,-17.05 0,-12.24 1.93,-23.15 5.79,-32.74 1.92,-4.78 4.23,-9.21 6.88,-13.28 2.68,-4.12 5.73,-7.86 9.11,-11.22 3.4,-3.35 7.11,-6.32 11.13,-8.89 4.02,-2.56 8.31,-4.71 12.86,-6.43 4.58,-1.72 9.27,-3.02 14.09,-3.87 4.82,-0.85 9.78,-1.28 14.87,-1.28 3.3,0 6.52,0.12 9.66,0.35 3.06,0.22 6.02,0.57 8.85,1.03 2.89,0.48 5.43,0.96 7.61,1.43 2.52,0.58 4.73,1.15 6.62,1.71 1.86,0.55 3.71,1.17 5.52,1.85 1.85,0.68 3.42,1.35 4.7,1.97l3.31 1.67c0.87,0.46 1.69,0.94 2.47,1.43l4 2.5 -12.82 35.59 -5.95 -3.16c-2,-1.07 -4.09,-2.04 -6.24,-2.9 -2.21,-0.89 -4.63,-1.73 -7.27,-2.52 -2.5,-0.76 -5.07,-1.32 -7.72,-1.68 -2.68,-0.37 -5.53,-0.55 -8.57,-0.55zm464.35 107.87l0 -143.41 104.62 0 0 37.72 -61.93 0 0 15.27 54.98 0 0 37.13 -54.98 0 0 21.43 66.49 0 0 37.72 -109.18 0 0 -5.86zm-81.67 7.65c-3.36,0 -7.18,-0.07 -11.44,-0.2 -4.01,-0.13 -7.82,-0.3 -11.43,-0.52 -3.9,-0.24 -7.87,-0.65 -11.89,-1.21 -4.05,-0.57 -8.15,-1.3 -12.3,-2.18l-4.65 -0.99 0 -142.97 4.79 -0.9c3.21,-0.6 6.64,-1.13 10.32,-1.61 3.77,-0.48 7.49,-0.87 11.14,-1.16 3.59,-0.28 7.3,-0.5 11.14,-0.67 3.88,-0.16 7.33,-0.24 10.35,-0.24 4.46,0 8.8,0.16 13.02,0.49 4.19,0.33 8.22,0.83 12.08,1.48 3.97,0.68 7.69,1.61 11.14,2.79 3.48,1.18 6.73,2.64 9.74,4.37 3.08,1.78 5.82,3.82 8.22,6.14 2.44,2.35 4.54,5 6.3,7.94 1.78,2.97 3.12,6.29 4.01,9.93 0.86,3.56 1.3,7.37 1.3,11.42 0,9.91 -3.53,18.21 -10.58,24.91 5.3,3.23 9.24,7.14 11.81,11.75 1.84,3.31 3.23,6.82 4.14,10.52 0.92,3.7 1.38,7.57 1.38,11.58 0,8.08 -1.52,15.25 -4.55,21.49 -3.07,6.35 -7.66,11.64 -13.78,15.87 -5.87,4.06 -13.09,7.09 -21.63,9.08 -8.28,1.92 -17.83,2.89 -28.63,2.89zm-9.82 -61.73l0 24.32 1.76 0.1 4.01 0.15 4.45 0.03c4.3,0 8.16,-0.3 11.55,-0.91 3.23,-0.56 6.04,-1.41 8.41,-2.51 1.74,-0.82 3.02,-1.91 3.81,-3.28 0.89,-1.52 1.33,-3.56 1.33,-6.1 0,-4.09 -1.39,-6.93 -4.17,-8.51 -1.81,-1.04 -4.12,-1.83 -6.92,-2.39 -3.04,-0.6 -6.58,-0.9 -10.64,-0.9l-13.59 0zm0 -35.35l9.23 0c8.47,0 14.29,-0.94 17.44,-2.82 1.11,-0.66 1.93,-1.49 2.44,-2.47 0.56,-1.12 0.86,-2.57 0.86,-4.33 0,-1.79 -0.3,-3.24 -0.87,-4.31 -0.51,-0.92 -1.3,-1.67 -2.35,-2.22 -1.64,-0.86 -3.69,-1.52 -6.15,-1.96 -2.68,-0.49 -5.95,-0.73 -9.78,-0.73l-4.07 0 -4.35 0.07 -2.4 0.09 0 18.68zm-160.97 20.55c0,3.19 0.19,6.14 0.55,8.85 0.38,2.75 0.93,5.33 1.66,7.72 0.7,2.3 1.59,4.51 2.66,6.6 1.02,2.01 2.18,3.82 3.48,5.45 1.3,1.63 2.71,3.05 4.22,4.24 1.52,1.21 3.23,2.26 5.1,3.14 1.83,0.87 3.8,1.51 5.92,1.95 2.14,0.43 4.49,0.65 7.07,0.65 2.51,0 4.83,-0.22 6.95,-0.65 2.08,-0.43 4.08,-1.1 5.98,-1.97 3.72,-1.73 6.86,-4.19 9.39,-7.36 1.29,-1.63 2.45,-3.44 3.47,-5.45 1.07,-2.09 1.96,-4.3 2.66,-6.6 0.73,-2.39 1.29,-4.97 1.66,-7.72 0.37,-2.71 0.55,-5.66 0.55,-8.85 0,-3.18 -0.18,-6.14 -0.55,-8.87 -0.37,-2.71 -0.93,-5.32 -1.68,-7.82 -0.73,-2.42 -1.61,-4.65 -2.64,-6.68 -0.99,-1.97 -2.16,-3.79 -3.47,-5.44 -2.53,-3.18 -5.67,-5.63 -9.39,-7.36 -1.9,-0.88 -3.9,-1.54 -5.98,-1.97 -2.12,-0.44 -4.44,-0.66 -6.95,-0.66 -2.53,0 -4.88,0.23 -7.02,0.68 -2.12,0.45 -4.1,1.12 -5.92,2 -1.85,0.9 -3.56,1.97 -5.11,3.22 -1.53,1.21 -2.95,2.64 -4.26,4.29 -2.64,3.31 -4.68,7.36 -6.12,12.12 -0.75,2.5 -1.31,5.09 -1.68,7.77 -0.36,2.69 -0.55,5.6 -0.55,8.72zm105 0c0,12.5 -1.89,23.56 -5.67,33.19 -3.81,9.7 -9.05,17.85 -15.72,24.45 -3.36,3.33 -7.05,6.25 -11.03,8.74 -3.94,2.47 -8.23,4.54 -12.83,6.21 -4.55,1.64 -9.26,2.88 -14.11,3.69 -4.87,0.82 -9.87,1.24 -14.98,1.24 -10.05,0 -19.59,-1.65 -28.59,-4.93 -4.57,-1.67 -8.84,-3.74 -12.8,-6.21 -3.98,-2.48 -7.69,-5.38 -11.11,-8.7 -3.44,-3.32 -6.5,-7.03 -9.17,-11.1 -2.63,-4.04 -4.93,-8.49 -6.87,-13.34 -1.95,-4.87 -3.41,-10.09 -4.37,-15.65 -0.95,-5.53 -1.43,-11.39 -1.43,-17.59 0,-6.23 0.5,-12.11 1.48,-17.62 1.03,-5.63 2.54,-10.87 4.54,-15.68 1.99,-4.81 4.34,-9.25 7.05,-13.32 2.72,-4.1 5.82,-7.82 9.26,-11.16 3.41,-3.3 7.13,-6.21 11.14,-8.73 4.01,-2.53 8.27,-4.62 12.76,-6.27 8.93,-3.28 18.3,-4.93 28.11,-4.93 10.06,0 19.59,1.64 28.59,4.93 4.55,1.66 8.84,3.75 12.83,6.26 4.02,2.53 7.73,5.46 11.11,8.76 3.4,3.34 6.45,7.07 9.14,11.19 2.66,4.07 4.96,8.53 6.88,13.33 3.86,9.66 5.79,20.74 5.79,33.24zm-146.88 42.28l0 32.46 -103.62 0 0 -149.27 42.68 0 0 110.95 60.94 0 0 5.86z"/>
  <path class="fil1" d="M1230.89 145.7c0,12.87 -2,24.05 -6,33.56 -4,9.5 -9.65,17.36 -16.94,23.58 -7.29,6.22 -16.01,10.86 -26.16,13.93 -10.14,3.08 -21.29,4.61 -33.44,4.61 -6.01,0 -12.62,-0.25 -19.83,-0.75 -7.22,-0.5 -13.76,-1.46 -19.62,-2.89l0 -144.07c5.86,-1.43 12.4,-2.4 19.62,-2.9 7.21,-0.5 13.82,-0.75 19.83,-0.75 12.15,0 23.3,1.54 33.44,4.61 10.15,3.07 18.87,7.72 26.16,13.94 7.29,6.22 12.94,14.08 16.94,23.58 4,9.5 6,20.69 6,33.55zm324.68 74.4c-2.43,-6.43 -4.72,-12.76 -6.86,-18.98 -2.15,-6.21 -4.36,-12.54 -6.65,-18.97l-67.32 0 -13.51 37.95 -21.65 0c5.72,-15.72 11.08,-30.27 16.08,-43.63 5,-13.37 9.9,-26.05 14.69,-38.06 4.78,-12 9.53,-23.47 14.25,-34.41 4.72,-10.93 9.65,-21.76 14.79,-32.48l19.09 0c5.14,10.72 10.07,21.55 14.79,32.48 4.72,10.94 9.47,22.41 14.26,34.41 4.79,12.01 9.68,24.69 14.68,38.06 5,13.36 10.37,27.91 16.08,43.63l-22.72 0zm-19.51 -55.1c-4.57,-12.44 -9.11,-24.48 -13.62,-36.12 -4.5,-11.65 -9.18,-22.84 -14.04,-33.56 -5,10.72 -9.75,21.91 -14.26,33.56 -4.5,11.64 -8.97,23.68 -13.4,36.12l55.32 0zm-73.79 -93.48l0 18.01 -46.74 0 0 130.57 -20.8 0 0 -130.57 -46.74 0 0 -18.01 114.28 0zm-117.1 148.58c-2.44,-6.43 -4.72,-12.76 -6.87,-18.98 -2.14,-6.21 -4.35,-12.54 -6.64,-18.97l-67.32 0 -13.51 37.95 -21.65 0c5.72,-15.72 11.08,-30.27 16.08,-43.63 5,-13.37 9.9,-26.05 14.68,-38.06 4.79,-12 9.54,-23.47 14.26,-34.41 4.72,-10.93 9.65,-21.76 14.79,-32.48l19.09 0c5.14,10.72 10.07,21.55 14.79,32.48 4.72,10.94 9.47,22.41 14.25,34.41 4.79,12.01 9.69,24.69 14.69,38.06 5,13.36 10.36,27.91 16.08,43.63l-22.72 0zm-19.51 -55.1c-4.58,-12.44 -9.12,-24.48 -13.62,-36.12 -4.5,-11.65 -9.18,-22.84 -14.04,-33.56 -5,10.72 -9.76,21.91 -14.26,33.56 -4.5,11.64 -8.97,23.68 -13.4,36.12l55.32 0zm-175.6 38.16c19.73,0 34.45,-5.04 44.17,-15.12 9.72,-10.07 14.57,-24.19 14.57,-42.34 0,-18.15 -4.85,-32.26 -14.57,-42.34 -9.72,-10.07 -24.44,-15.11 -44.17,-15.11 -5.85,0 -10.39,0.07 -13.61,0.21 -3.22,0.14 -5.47,0.29 -6.75,0.43l0 113.63c1.28,0.14 3.53,0.28 6.75,0.43 3.22,0.14 7.76,0.21 13.61,0.21z"/>
  <path class="fil2" d="M242.7 0c23.77,5.4 45.81,16.02 64.67,30.75 33.09,25.84 56.32,64.27 61.85,109.15 5.51,44.85 -7.71,87.75 -33.55,120.85 -25.85,33.09 -64.27,56.32 -109.15,61.85 -44.86,5.51 -87.76,-7.71 -120.85,-33.56 -33.09,-25.84 -56.33,-64.26 -61.85,-109.14 -1.94,-15.74 -1.56,-31.25 0.85,-46.17l70.45 93.43 0.03 -0.03c1.97,2.62 4.63,4.76 7.85,6.12 9.75,4.1 20.99,-0.47 25.1,-10.22l94.6 -223.03z"/>
  <path class="fil1" d="M15.81 27.55l155.68 -19.16c9.87,-1.2 18.85,5.82 20.05,15.69 0.46,3.78 -0.28,7.43 -1.93,10.56l-60.65 143c-3.85,9.13 -14.37,13.41 -23.51,9.57 -3.02,-1.28 -5.51,-3.28 -7.36,-5.73l-0.03 0.03 -94.43 -125.25c-5.98,-7.93 -4.41,-19.21 3.52,-25.2 2.62,-1.98 5.62,-3.13 8.66,-3.5l0 -0.01z"/>
  <path class="fil3" d="M903.85 292.27c-2.55,0 -4.76,-0.39 -6.63,-1.18 -1.87,-0.78 -3.41,-1.86 -4.6,-3.23 -1.2,-1.36 -2.09,-2.98 -2.67,-4.85 -0.58,-1.88 -0.87,-3.9 -0.87,-6.07l0 -24.43 5.45 0 0 23.81c0,3.9 0.86,6.72 2.58,8.48 1.72,1.76 3.97,2.64 6.74,2.64 1.38,0 2.65,-0.21 3.79,-0.64 1.14,-0.43 2.12,-1.1 2.94,-2 0.83,-0.9 1.47,-2.05 1.92,-3.45 0.45,-1.41 0.67,-3.08 0.67,-5.03l0 -23.81 5.45 0 0 24.43c0,2.17 -0.29,4.19 -0.88,6.07 -0.57,1.87 -1.47,3.49 -2.69,4.85 -1.22,1.37 -2.75,2.45 -4.6,3.23 -1.86,0.79 -4.06,1.18 -6.6,1.18zm50.82 -0.84c-0.83,-1.39 -1.77,-2.94 -2.84,-4.66 -1.06,-1.72 -2.22,-3.51 -3.45,-5.37 -1.24,-1.85 -2.52,-3.73 -3.85,-5.64 -1.33,-1.91 -2.65,-3.75 -3.96,-5.53 -1.31,-1.78 -2.58,-3.45 -3.82,-5.03 -1.23,-1.57 -2.37,-2.95 -3.42,-4.15l0 30.38 -5.34 0 0 -38.92 4.33 0c1.76,1.87 3.64,4.05 5.64,6.54 2,2.49 3.99,5.06 5.95,7.7 1.97,2.64 3.82,5.23 5.56,7.78 1.74,2.54 3.21,4.81 4.41,6.79l0 -28.81 5.34 0 0 38.92 -4.55 0zm14.21 -38.92l5.44 0 0 38.92 -5.44 0 0 -38.92zm46.55 0c-1.43,4.12 -2.78,7.93 -4.07,11.43 -1.3,3.5 -2.56,6.82 -3.79,9.97 -1.24,3.14 -2.47,6.15 -3.68,9.01 -1.22,2.87 -2.46,5.7 -3.74,8.51l-5.11 0c-1.27,-2.81 -2.51,-5.64 -3.73,-8.51 -1.22,-2.86 -2.45,-5.87 -3.71,-9.01 -1.25,-3.15 -2.53,-6.47 -3.84,-9.97 -1.31,-3.5 -2.66,-7.31 -4.05,-11.43l6.01 0c2.02,5.92 4.01,11.61 5.95,17.07 1.95,5.47 3.95,10.6 6.01,15.39 2.06,-4.75 4.07,-9.87 6.01,-15.36 1.95,-5.48 3.91,-11.18 5.9,-17.1l5.84 0zm5.39 38.92l0 -38.92 23.75 0 0 4.66 -18.3 0 0 11.57 16.28 0 0 4.55 -16.28 0 0 13.48 19.71 0 0 4.66 -25.16 0zm51.1 -16.29c0.6,0.75 1.36,1.73 2.27,2.95 0.92,1.22 1.87,2.56 2.84,4.04 0.97,1.48 1.94,3.03 2.89,4.64 0.96,1.61 1.77,3.16 2.45,4.66l-5.96 0c-0.74,-1.42 -1.56,-2.87 -2.44,-4.33 -0.88,-1.46 -1.77,-2.85 -2.67,-4.18 -0.9,-1.33 -1.79,-2.57 -2.66,-3.73 -0.88,-1.16 -1.68,-2.18 -2.39,-3.04 -0.48,0.04 -0.98,0.06 -1.49,0.06 -0.5,0 -1.02,0 -1.54,0l-4.89 0 0 15.22 -5.45 0 0 -38.36c1.54,-0.37 3.25,-0.62 5.14,-0.75 1.89,-0.13 3.63,-0.2 5.2,-0.2 5.47,0 9.63,1.03 12.49,3.09 2.87,2.06 4.3,5.13 4.3,9.21 0,2.58 -0.69,4.79 -2.05,6.62 -1.37,1.84 -3.38,3.21 -6.04,4.1zm-8.26 -18.25c-2.31,0 -4.09,0.06 -5.33,0.17l0 14.66 3.88 0c1.87,0 3.56,-0.1 5.05,-0.28 1.5,-0.19 2.76,-0.55 3.79,-1.07 1.03,-0.52 1.83,-1.26 2.39,-2.22 0.56,-0.95 0.84,-2.22 0.84,-3.79 0,-1.46 -0.28,-2.67 -0.84,-3.65 -0.56,-0.97 -1.32,-1.74 -2.28,-2.3 -0.95,-0.56 -2.07,-0.96 -3.37,-1.18 -1.29,-0.22 -2.66,-0.34 -4.13,-0.34zm33.59 30.66c5.69,0 8.53,-1.94 8.53,-5.84 0,-1.19 -0.25,-2.22 -0.75,-3.06 -0.51,-0.84 -1.19,-1.57 -2.05,-2.19 -0.87,-0.62 -1.85,-1.15 -2.95,-1.6 -1.11,-0.45 -2.28,-0.9 -3.51,-1.35 -1.43,-0.48 -2.77,-1.03 -4.04,-1.65 -1.28,-0.62 -2.39,-1.35 -3.32,-2.19 -0.93,-0.84 -1.67,-1.85 -2.22,-3.01 -0.54,-1.16 -0.81,-2.56 -0.81,-4.21 0,-3.4 1.16,-6.06 3.48,-7.97 2.32,-1.91 5.52,-2.87 9.6,-2.87 2.36,0 4.5,0.26 6.43,0.76 1.93,0.51 3.34,1.06 4.24,1.66l-1.74 4.44c-0.79,-0.49 -1.95,-0.97 -3.51,-1.44 -1.55,-0.47 -3.36,-0.7 -5.42,-0.7 -1.05,0 -2.02,0.11 -2.92,0.34 -0.89,0.22 -1.68,0.56 -2.35,1.01 -0.68,0.45 -1.21,1.02 -1.61,1.71 -0.39,0.7 -0.58,1.51 -0.58,2.44 0,1.05 0.2,1.93 0.61,2.64 0.41,0.71 0.99,1.34 1.74,1.88 0.75,0.55 1.62,1.04 2.62,1.49 0.98,0.45 2.08,0.9 3.28,1.35 1.68,0.68 3.23,1.35 4.63,2.02 1.41,0.68 2.62,1.48 3.65,2.42 1.03,0.93 1.83,2.05 2.39,3.34 0.56,1.29 0.84,2.85 0.84,4.69 0,3.4 -1.24,6.02 -3.73,7.86 -2.49,1.83 -6,2.75 -10.53,2.75 -1.54,0 -2.95,-0.1 -4.24,-0.31 -1.29,-0.2 -2.45,-0.45 -3.45,-0.73 -1.02,-0.28 -1.89,-0.58 -2.62,-0.9 -0.73,-0.32 -1.3,-0.59 -1.71,-0.81l1.63 -4.49c0.86,0.48 2.17,1.03 3.93,1.62 1.76,0.6 3.91,0.9 6.46,0.9zm20.83 3.88l0 -38.92 23.76 0 0 4.66 -18.31 0 0 11.57 16.28 0 0 4.55 -16.28 0 0 13.48 19.71 0 0 4.66 -25.16 0zm43.47 -19.49c0,-3.33 0.49,-6.27 1.49,-8.81 0.98,-2.55 2.33,-4.67 4.04,-6.38 1.7,-1.7 3.68,-2.98 5.95,-3.85 2.26,-0.86 4.67,-1.29 7.21,-1.29 2.51,0 4.88,0.43 7.11,1.29 2.23,0.87 4.18,2.15 5.87,3.85 1.68,1.71 3.02,3.83 4.01,6.38 1,2.54 1.49,5.48 1.49,8.81 0,3.33 -0.49,6.27 -1.49,8.82 -0.99,2.55 -2.33,4.67 -4.01,6.37 -1.69,1.71 -3.64,2.99 -5.87,3.85 -2.23,0.86 -4.6,1.29 -7.11,1.29 -2.54,0 -4.95,-0.43 -7.21,-1.29 -2.27,-0.86 -4.25,-2.14 -5.95,-3.85 -1.71,-1.7 -3.06,-3.82 -4.04,-6.37 -1,-2.55 -1.49,-5.49 -1.49,-8.82zm5.72 0c0,2.36 0.3,4.5 0.9,6.43 0.6,1.93 1.45,3.57 2.56,4.92 1.1,1.34 2.45,2.38 4.04,3.11 1.59,0.73 3.38,1.1 5.36,1.1 1.99,0 3.77,-0.37 5.34,-1.1 1.57,-0.73 2.91,-1.77 4.01,-3.11 1.11,-1.35 1.96,-2.99 2.56,-4.92 0.6,-1.93 0.9,-4.07 0.9,-6.43 0,-2.36 -0.3,-4.5 -0.9,-6.43 -0.6,-1.93 -1.45,-3.56 -2.56,-4.91 -1.1,-1.35 -2.44,-2.39 -4.01,-3.12 -1.57,-0.73 -3.35,-1.09 -5.34,-1.09 -1.98,0 -3.77,0.36 -5.36,1.09 -1.59,0.73 -2.94,1.77 -4.04,3.12 -1.11,1.35 -1.96,2.98 -2.56,4.91 -0.6,1.93 -0.9,4.07 -0.9,6.43zm39.54 19.49l0 -38.92 23.47 0 0 4.66 -18.03 0 0 11.74 16.01 0 0 4.6 -16.01 0 0 17.92 -5.44 0zm43.13 -38.92l5.44 0 0 38.92 -5.44 0 0 -38.92zm41.78 38.92c-0.83,-1.39 -1.78,-2.94 -2.84,-4.66 -1.07,-1.72 -2.22,-3.51 -3.45,-5.37 -1.24,-1.85 -2.53,-3.73 -3.85,-5.64 -1.33,-1.91 -2.65,-3.75 -3.96,-5.53 -1.31,-1.78 -2.58,-3.45 -3.82,-5.03 -1.23,-1.57 -2.38,-2.95 -3.43,-4.15l0 30.38 -5.33 0 0 -38.92 4.32 0c1.76,1.87 3.64,4.05 5.65,6.54 2,2.49 3.98,5.06 5.95,7.7 1.97,2.64 3.82,5.23 5.56,7.78 1.74,2.54 3.21,4.81 4.41,6.79l0 -28.81 5.33 0 0 38.92 -4.54 0zm40.87 0c-0.82,-1.39 -1.76,-2.94 -2.83,-4.66 -1.07,-1.72 -2.22,-3.51 -3.46,-5.37 -1.23,-1.85 -2.51,-3.73 -3.84,-5.64 -1.33,-1.91 -2.65,-3.75 -3.96,-5.53 -1.31,-1.78 -2.58,-3.45 -3.82,-5.03 -1.23,-1.57 -2.37,-2.95 -3.42,-4.15l0 30.38 -5.34 0 0 -38.92 4.32 0c1.76,1.87 3.65,4.05 5.65,6.54 2,2.49 3.99,5.06 5.95,7.7 1.97,2.64 3.82,5.23 5.56,7.78 1.74,2.54 3.21,4.81 4.41,6.79l0 -28.81 5.33 0 0 38.92 -4.55 0zm12.64 -19.49c0,-3.33 0.5,-6.27 1.49,-8.81 0.99,-2.55 2.34,-4.67 4.04,-6.38 1.7,-1.7 3.69,-2.98 5.96,-3.85 2.26,-0.86 4.66,-1.29 7.21,-1.29 2.51,0 4.88,0.43 7.1,1.29 2.23,0.87 4.19,2.15 5.87,3.85 1.68,1.71 3.02,3.83 4.02,6.38 0.99,2.54 1.49,5.48 1.49,8.81 0,3.33 -0.5,6.27 -1.49,8.82 -1,2.55 -2.34,4.67 -4.02,6.37 -1.68,1.71 -3.64,2.99 -5.87,3.85 -2.22,0.86 -4.59,1.29 -7.1,1.29 -2.55,0 -4.95,-0.43 -7.21,-1.29 -2.27,-0.86 -4.26,-2.14 -5.96,-3.85 -1.7,-1.7 -3.05,-3.82 -4.04,-6.37 -0.99,-2.55 -1.49,-5.49 -1.49,-8.82zm5.73 0c0,2.36 0.3,4.5 0.9,6.43 0.6,1.93 1.45,3.57 2.55,4.92 1.11,1.34 2.46,2.38 4.05,3.11 1.59,0.73 3.37,1.1 5.36,1.1 1.98,0 3.76,-0.37 5.33,-1.1 1.57,-0.73 2.91,-1.77 4.02,-3.11 1.1,-1.35 1.95,-2.99 2.55,-4.92 0.6,-1.93 0.9,-4.07 0.9,-6.43 0,-2.36 -0.3,-4.5 -0.9,-6.43 -0.6,-1.93 -1.45,-3.56 -2.55,-4.91 -1.11,-1.35 -2.45,-2.39 -4.02,-3.12 -1.57,-0.73 -3.35,-1.09 -5.33,-1.09 -1.99,0 -3.77,0.36 -5.36,1.09 -1.59,0.73 -2.94,1.77 -4.05,3.12 -1.1,1.35 -1.95,2.98 -2.55,4.91 -0.6,1.93 -0.9,4.07 -0.9,6.43zm70.03 -19.43c-1.43,4.12 -2.79,7.93 -4.08,11.43 -1.29,3.5 -2.55,6.82 -3.79,9.97 -1.23,3.14 -2.46,6.15 -3.68,9.01 -1.21,2.87 -2.46,5.7 -3.73,8.51l-5.11 0c-1.27,-2.81 -2.52,-5.64 -3.74,-8.51 -1.21,-2.86 -2.45,-5.87 -3.7,-9.01 -1.25,-3.15 -2.54,-6.47 -3.85,-9.97 -1.31,-3.5 -2.66,-7.31 -4.04,-11.43l6.01 0c2.02,5.92 4,11.61 5.95,17.07 1.95,5.47 3.95,10.6 6.01,15.39 2.06,-4.75 4.06,-9.87 6.01,-15.36 1.94,-5.48 3.91,-11.18 5.89,-17.1l5.85 0zm27.9 38.92c-0.63,-1.69 -1.23,-3.34 -1.79,-4.97 -0.57,-1.63 -1.15,-3.29 -1.74,-4.97l-17.64 0 -3.53 9.94 -5.67 0c1.49,-4.12 2.9,-7.93 4.2,-11.43 1.32,-3.5 2.6,-6.82 3.85,-9.97 1.25,-3.14 2.5,-6.15 3.74,-9.01 1.23,-2.86 2.52,-5.7 3.87,-8.51l5 0c1.35,2.81 2.64,5.65 3.87,8.51 1.24,2.86 2.48,5.87 3.74,9.01 1.25,3.15 2.53,6.47 3.84,9.97 1.31,3.5 2.72,7.31 4.22,11.43l-5.96 0zm-5.11 -14.43c-1.19,-3.26 -2.38,-6.41 -3.56,-9.47 -1.18,-3.05 -2.41,-5.98 -3.68,-8.78 -1.31,2.8 -2.56,5.73 -3.74,8.78 -1.17,3.06 -2.34,6.21 -3.51,9.47l14.49 0zm38.75 -24.49l0 4.72 -12.24 0 0 34.2 -5.45 0 0 -34.2 -12.24 0 0 -4.72 29.93 0zm5.73 0l5.44 0 0 38.92 -5.44 0 0 -38.92zm13.53 19.43c0,-3.33 0.5,-6.27 1.49,-8.81 0.99,-2.55 2.34,-4.67 4.04,-6.38 1.71,-1.7 3.69,-2.98 5.95,-3.85 2.27,-0.86 4.68,-1.29 7.22,-1.29 2.51,0 4.88,0.43 7.1,1.29 2.23,0.87 4.19,2.15 5.87,3.85 1.69,1.71 3.03,3.83 4.02,6.38 0.99,2.54 1.49,5.48 1.49,8.81 0,3.33 -0.5,6.27 -1.49,8.82 -0.99,2.55 -2.33,4.67 -4.02,6.37 -1.68,1.71 -3.64,2.99 -5.87,3.85 -2.22,0.86 -4.59,1.29 -7.1,1.29 -2.54,0 -4.95,-0.43 -7.22,-1.29 -2.26,-0.86 -4.24,-2.14 -5.95,-3.85 -1.7,-1.7 -3.05,-3.82 -4.04,-6.37 -0.99,-2.55 -1.49,-5.49 -1.49,-8.82zm5.73 0c0,2.36 0.3,4.5 0.89,6.43 0.61,1.93 1.46,3.57 2.56,4.92 1.11,1.34 2.46,2.38 4.05,3.11 1.59,0.73 3.37,1.1 5.36,1.1 1.98,0 3.76,-0.37 5.33,-1.1 1.58,-0.73 2.91,-1.77 4.02,-3.11 1.1,-1.35 1.95,-2.99 2.55,-4.92 0.6,-1.93 0.9,-4.07 0.9,-6.43 0,-2.36 -0.3,-4.5 -0.9,-6.43 -0.6,-1.93 -1.45,-3.56 -2.55,-4.91 -1.11,-1.35 -2.44,-2.39 -4.02,-3.12 -1.57,-0.73 -3.35,-1.09 -5.33,-1.09 -1.99,0 -3.77,0.36 -5.36,1.09 -1.59,0.73 -2.94,1.77 -4.05,3.12 -1.1,1.35 -1.95,2.98 -2.56,4.91 -0.59,1.93 -0.89,4.07 -0.89,6.43zm66.21 19.49c-0.83,-1.39 -1.77,-2.94 -2.84,-4.66 -1.07,-1.72 -2.22,-3.51 -3.45,-5.37 -1.24,-1.85 -2.52,-3.73 -3.85,-5.64 -1.33,-1.91 -2.65,-3.75 -3.96,-5.53 -1.31,-1.78 -2.58,-3.45 -3.82,-5.03 -1.23,-1.57 -2.38,-2.95 -3.42,-4.15l0 30.38 -5.34 0 0 -38.92 4.33 0c1.76,1.87 3.64,4.05 5.64,6.54 2,2.49 3.99,5.06 5.95,7.7 1.97,2.64 3.82,5.23 5.56,7.78 1.74,2.54 3.21,4.81 4.41,6.79l0 -28.81 5.33 0 0 38.92 -4.54 0z"/>
 </g>
</svg>
